<svg width="700" height="825" viewBox="0 0 700 825" version="1.1" xmlns="http://www.w3.org/2000/svg" xmlns:xlink="http://www.w3.org/1999/xlink">
<title>Portrait</title>
<desc>Created using Figma</desc>
<g id="Canvas" transform="translate(-23241 -8913)">
<g id="Portrait">
<g id="Group">
<mask id="mask0_alpha" mask-type="alpha">
<g id="Ellipse">
<use xlink:href="#path0_fill" transform="translate(23241 9038)" fill="#C4C4C4"/>
</g>
</mask>
<g id="Ellipse" mask="url(#mask0_alpha)">
<use xlink:href="#path0_fill" transform="translate(23241 9038)" fill="#65CEFA"/>
</g>
<g id="Vector 10" mask="url(#mask0_alpha)">
<use xlink:href="#path1_fill" transform="translate(23371 9507.06)" fill="#1172A0"/>
</g>
<g id="Vector 10" mask="url(#mask0_alpha)">
<use xlink:href="#path2_fill" transform="matrix(-1 0 0 1 23812 9507.06)" fill="#1172A0"/>
</g>
</g>
<g id="Bam - Portrait">
<g id="Face Skin">
<g id="Vector 8">
<use xlink:href="#path3_fill" transform="translate(23529.1 9460.04)" fill="#CEB58E"/>
</g>
<g id="Vector 8">
<use xlink:href="#path3_fill" transform="matrix(-1 0 0 1 23657.4 9460.04)" fill="#E2C99B"/>
</g>
<g id="Vector 3">
<use xlink:href="#path4_fill" transform="translate(23590.9 9016.22)" fill="#EDD9B4"/>
</g>
<g id="Vector 3">
<use xlink:href="#path4_fill" transform="matrix(-1 0 0 1 23592.7 9016.22)" fill="#DCC5A1"/>
</g>
<g id="Vector 7">
<use xlink:href="#path5_fill" transform="translate(23752.9 9193.98)" fill="#EDD9B4"/>
</g>
<g id="Vector 7">
<use xlink:href="#path5_fill" transform="matrix(-1 0 0 1 23437 9193.98)" fill="#DCC5A1"/>
</g>
</g>
<g id="Beard">
<g id="Vector 6">
<use xlink:href="#path6_fill" transform="matrix(-1 0 0 1 23594.3 9275.7)" fill="#837561"/>
</g>
<g id="Vector 6">
<use xlink:href="#path6_fill" transform="translate(23592.1 9275.7)" fill="#837561"/>
</g>
<g id="Vector 9">
<use xlink:href="#path7_fill" transform="translate(23590.9 9317.84)" fill="#94896A"/>
</g>
<g id="Vector 9">
<use xlink:href="#path7_fill" transform="matrix(-1 0 0 1 23593.2 9317.84)" fill="#94896A"/>
</g>
</g>
<g id="Hair">
<g id="Ellipse">
<use xlink:href="#path8_fill" transform="translate(23526.8 8913)" fill="#5A4539"/>
</g>
<g id="Vector 5">
<use xlink:href="#path9_fill" transform="translate(23705.4 9045.31)" fill="#9A8A80"/>
</g>
<g id="Vector 4">
<use xlink:href="#path10_fill" transform="translate(23592.1 8960.02)" fill="#6B574B"/>
</g>
<g id="Vector 5">
<use xlink:href="#path11_fill" transform="matrix(-1 0 0 1 23481 9045.31)" fill="#9A8A80"/>
</g>
<g id="Vector 4">
<use xlink:href="#path10_fill" transform="matrix(-1 0 0 1 23594.3 8960.02)" fill="#6B574B"/>
</g>
</g>
</g>
</g>
</g>
<defs>
<path id="path0_fill" d="M 700 350C 700 543.3 543.3 700 350 700C 156.7 700 0 543.3 0 350C 0 156.7 156.7 0 350 0C 543.3 0 700 156.7 700 350Z"/>
<path id="path1_fill" d="M 16.0364 92.8943C 4.12364 123.171 0.381818 168.204 0 186.935L 221.073 251.936L 221.073 0L 170.673 0C 144.327 0 105.382 9.17474 83.6182 20.6432C 61.8545 32.1116 30.9273 55.0485 16.0364 92.8943Z"/>
<path id="path2_fill" d="M 16.0364 92.8943C 4.12364 123.171 0.381818 168.204 0 186.935L 221.073 250.936L 221.073 0L 170.673 0C 144.327 0 105.382 9.17474 83.6182 20.6432C 61.8545 32.1116 30.9273 55.0485 16.0364 92.8943Z"/>
<path id="path3_fill" d="M 0 60.7827C 4.58182 55.2778 4.2 18.7318 8.01818 0L 64.1454 12.6153L 64.1454 105.51C 58.4182 99.393 54.2945 85.7838 51.5454 80.279C 38.9454 79.1322 14.8909 71.1043 0 60.7827Z"/>
<path id="path4_fill" d="M 88.2 405.982C 66.2073 428.919 18.7091 442.299 0 440.388L 0 0C 134.018 0 155.782 73.3979 164.945 91.7474C 172.276 106.427 168 214.077 164.945 266.068L 164.945 299.326C 164.945 321.116 160.327 330.697 143.182 353.228C 124.855 377.311 115.691 377.311 88.2 405.982Z"/>
<path id="path5_fill" d="M 37.3336 0C 28.1699 0 19.0063 3.82281 15.5699 5.73421C 9.07902 37.8458 -2.98644 106.886 0.679019 126.153C 12.1336 126.153 15.5699 119.272 30.4608 106.656C 45.3517 94.0411 59.0972 71.1043 59.0972 49.3142C 59.0972 27.5242 48.7881 0 37.3336 0Z"/>
<path id="path6_fill" d="M 56.1273 190.08C 45.1309 193.75 22.9091 194.667 0 203.842L 0 121.269C 10.3091 121.269 16.0364 122.416 22.9091 125.857C 29.7818 129.297 20.6182 141.912 30.9273 147.646C 41.2364 153.381 72.1636 125.857 87.0545 115.535C 101.945 105.213 126 76.5423 132.873 65.0738C 138.371 55.899 146.618 23.0229 150.055 7.73175C 153.491 2.7621 161.509 -4.88352 166.091 4.29123C 171.818 15.7597 161.509 67.3676 160.364 76.5423C 159.218 85.7171 140.891 120.122 132.873 125.857C 124.855 131.591 98.5091 159.115 92.7818 168.29C 87.0545 177.464 69.8727 185.492 56.1273 190.08Z"/>
<path id="path7_fill" d="M 21.7636 0C 14.4327 4.58737 4.2 4.96965 0 4.58737L 0 34.4053C 6.87273 34.4053 11.4545 29.8179 17.1818 29.8179C 22.9091 29.8179 30.9273 32.1116 37.8 34.4053C 44.6727 36.699 74.4545 49.3142 77.8909 34.4053C 56.1273 26.3774 32.0727 9.17474 21.7636 0Z"/>
<path id="path8_fill" d="M 132.873 66.5169C 132.873 103.253 103.128 133.034 66.4364 133.034C 29.7446 133.034 0 103.253 0 66.5169C 0 29.7806 29.7446 0 66.4364 0C 103.128 0 132.873 29.7806 132.873 66.5169Z"/>
<path id="path9_fill" d="M 55.0938 239.262L 35.6211 241.556C 44.7847 218.619 44.7847 162.424 43.6392 145.221C 42.4938 128.019 24.8778 105.635 17.2938 102.788C 8.13052 99.3481 1.25779 85.586 0.112338 76.4113C -0.804025 69.0715 4.31242 40.477 0.11242 33.9782C 16.9124 32.0668 36.0797 -9.14299 51.6579 1.8667C 86.0215 61.5026 78.0029 116.55 76.8574 139.487C 75.9411 157.837 61.9665 213.65 55.0938 239.262Z"/>
<path id="path10_fill" d="M 64.1454 104.363C 39.4036 104.363 29.7818 118.125 0 118.125L 0 0C 71.0182 0 136.309 41.2863 164.945 87.1601C 144.709 87.1601 126 118.125 116.836 130.74C 102.347 127.113 95.0727 104.363 64.1454 104.363Z"/>
<path id="path11_fill" d="M 55.0938 239.262L 35.621 241.556C 44.7847 218.619 44.7847 162.424 43.6392 145.221C 42.4938 128.019 24.8778 105.635 17.2938 102.788C 8.13052 99.3481 1.25779 85.586 0.112338 76.4112C -0.804025 69.0714 4.31242 40.477 0.11242 33.9782C 16.9124 32.0668 35.9969 -9.14327 51.5751 1.86642C 85.9387 61.5023 78.0029 116.55 76.8574 139.487C 75.9411 157.836 61.9665 213.649 55.0938 239.262Z"/>
</defs>
</svg>
