<svg width="960" height="297" viewBox="0 0 960 297" version="1.1" xmlns="http://www.w3.org/2000/svg" xmlns:xlink="http://www.w3.org/1999/xlink">
<title>Keno</title>
<desc>Created using Figma</desc>
<g id="Canvas" transform="translate(-29729 -8619)">
<g id="Keno">
<g id="Symbols">
<g id="Logo/Keno/Horiz">
<g id="Logo/Keno">
<g id="KENO">
<g id="Fill 1">
<use xlink:href="#path0_fill" transform="translate(30531.3 8697.98)" fill="#246BB5"/>
</g>
<g id="Fill 2">
<use xlink:href="#path1_fill" transform="translate(30358.7 8695.86)" fill="#246BB5"/>
</g>
<g id="Fill 3">
<use xlink:href="#path2_fill" transform="translate(30205 8695.86)" fill="#246BB5"/>
</g>
<g id="Fill 4">
<use xlink:href="#path3_fill" transform="translate(30041.5 8698.14)" fill="#246BB5"/>
</g>
</g>
<g id="Play">
<mask id="mask0_alpha" mask-type="alpha">
<g id="mask 2">
<g id="Vector">
<use xlink:href="#path4_fill" transform="translate(29729 8619)" fill="#FFFFFF"/>
</g>
</g>
</mask>
<g id="Mask" mask="url(#mask0_alpha)">
<use xlink:href="#path4_fill" transform="translate(29729 8619)" fill="#FFFFFF"/>
</g>
<g id="Group" mask="url(#mask0_alpha)">
<g id="Group">
<g id="Fill 1">
<use xlink:href="#path5_fill" transform="translate(29808.1 8631.13)" fill="url(#paint6_linear)"/>
</g>
<g id="Fill 2">
<g id="Vector" filter="url(#filter0_d)">
<use xlink:href="#path6_fill" transform="translate(29596.4 8770.61)"/>
</g>
<g id="Vector">
<use xlink:href="#path6_fill" transform="translate(29596.4 8770.61)" fill="url(#paint8_linear)"/>
</g>
</g>
<g id="Fill 3">
<use xlink:href="#path7_fill" transform="translate(29627.1 8516.64)" fill="url(#paint9_linear)"/>
</g>
<g id="Fill 4">
<g id="Vector" filter="url(#filter1_d)">
<use xlink:href="#path8_fill" transform="translate(29806.9 8582.96)"/>
</g>
<g id="Vector">
<use xlink:href="#path8_fill" transform="translate(29806.9 8582.96)" fill="url(#paint11_linear)"/>
</g>
</g>
</g>
</g>
</g>
</g>
</g>
</g>
</g>
</g>
<defs>
<filter id="filter0_d" filterUnits="userSpaceOnUse" x="29592" y="8766" width="344" height="337" color-interpolation-filters="sRGB">
<feFlood flood-opacity="0" result="BackgroundImageFix"/>
<feColorMatrix in="SourceAlpha" type="matrix" values="0 0 0 0 0 0 0 0 0 0 0 0 0 0 0 0 0 0 255 0"/>
<feOffset dx="0" dy="0"/>
<feGaussianBlur stdDeviation="2"/>
<feColorMatrix type="matrix" values="0 0 0 0 0 0 0 0 0 0 0 0 0 0 0 0 0 0 0.2 0"/>
<feBlend mode="normal" in2="BackgroundImageFix" result="effect1_dropShadow"/>
<feBlend mode="normal" in="SourceGraphic" in2="effect1_dropShadow" result="shape"/>
</filter>
<filter id="filter1_d" filterUnits="userSpaceOnUse" x="29802" y="8580" width="190" height="187" color-interpolation-filters="sRGB">
<feFlood flood-opacity="0" result="BackgroundImageFix"/>
<feColorMatrix in="SourceAlpha" type="matrix" values="0 0 0 0 0 0 0 0 0 0 0 0 0 0 0 0 0 0 255 0"/>
<feOffset dx="0" dy="2"/>
<feGaussianBlur stdDeviation="2"/>
<feColorMatrix type="matrix" values="0 0 0 0 0 0 0 0 0 0 0 0 0 0 0 0 0 0 0.2 0"/>
<feBlend mode="normal" in2="BackgroundImageFix" result="effect1_dropShadow"/>
<feBlend mode="normal" in="SourceGraphic" in2="effect1_dropShadow" result="shape"/>
</filter>
<linearGradient id="paint6_linear" x1="0" y1="0" x2="1" y2="0" gradientUnits="userSpaceOnUse" gradientTransform="matrix(-125.806 -26.5585 27.0944 -123.318 124.596 197.356)">
<stop offset="0" stop-color="#D9E025"/>
<stop offset="1" stop-color="#2DB04B"/>
</linearGradient>
<linearGradient id="paint8_linear" x1="0" y1="0" x2="1" y2="0" gradientUnits="userSpaceOnUse" gradientTransform="matrix(129.123 -89.2609 91.062 126.569 101.725 64.0396)">
<stop offset="0" stop-color="#28AAE1"/>
<stop offset="1" stop-color="#523491"/>
</linearGradient>
<linearGradient id="paint9_linear" x1="0" y1="0" x2="1" y2="0" gradientUnits="userSpaceOnUse" gradientTransform="matrix(-57.1609 -80.9199 82.5528 -56.0303 114.344 202.797)">
<stop offset="0" stop-color="#EA185B"/>
<stop offset="1" stop-color="#783237"/>
</linearGradient>
<linearGradient id="paint11_linear" x1="0" y1="0" x2="1" y2="0" gradientUnits="userSpaceOnUse" gradientTransform="matrix(217.024 113.55 -115.842 212.732 57.9208 -89.1571)">
<stop offset="0" stop-color="#FBED1F"/>
<stop offset="1" stop-color="#EE5525"/>
</linearGradient>
<path id="path0_fill" fill-rule="evenodd" d="M 78.8368 3.10591e-08C 35.3722 3.10591e-08 -1.64524e-05 35.0713 -1.64524e-05 78.1662C -1.64524e-05 99.0066 8.20828 118.629 23.1177 133.411C 38.0272 148.194 57.8175 156.332 78.8368 156.332C 122.313 156.332 157.674 121.273 157.674 78.1777C 157.674 35.0713 122.313 3.10591e-08 78.8368 3.10591e-08ZM 118.904 78.1662C 118.893 100.064 100.923 117.881 78.8484 117.881C 68.1591 117.881 58.1074 113.743 50.5367 106.237C 42.966 98.7308 38.7924 88.7646 38.7924 78.1777C 38.7924 67.5907 42.966 57.6131 50.5367 50.1068C 58.1189 42.6006 68.1591 38.4624 78.8368 38.4624C 100.923 38.4624 118.881 56.2796 118.904 78.1662Z"/>
<path id="path1_fill" fill-rule="evenodd" d="M 128.168 1.29851e-09C 117.478 1.29851e-09 108.772 8.62127 108.772 19.2197L 108.772 89.0634L 33.8187 6.37974C 33.6796 6.21881 33.5173 6.08087 33.3665 5.93143C 33.1926 5.73602 33.0071 5.5521 32.8216 5.37967C 32.5434 5.11529 32.2535 4.8624 31.9637 4.6095C 31.755 4.43708 31.5347 4.26465 31.326 4.09223C 31.0478 3.87382 30.758 3.65542 30.4681 3.46C 30.2015 3.27608 29.9348 3.11515 29.6566 2.94273C 29.3899 2.7703 29.1348 2.60937 28.8566 2.45994C 28.5204 2.26452 28.1726 2.10359 27.8248 1.93116C 27.5929 1.82771 27.3726 1.70126 27.1407 1.6093C 26.7234 1.42538 26.2828 1.26445 25.8422 1.11502C 25.6683 1.04605 25.4944 0.977077 25.3205 0.919602C 24.8336 0.770167 24.3351 0.643721 23.825 0.528771C 23.6858 0.494286 23.5467 0.436811 23.396 0.413821C 22.9091 0.310366 22.3989 0.241396 21.9004 0.172425C 21.7381 0.149435 21.5642 0.11495 21.4019 0.103455C 21.0193 0.0574752 20.6367 0.0574752 20.2541 0.0344851C 19.9643 0.0344851 19.6744 1.29851e-09 19.3846 1.29851e-09C 18.7585 1.29851e-09 18.1325 0.0344851 17.518 0.0919602C 17.3441 0.103455 17.1818 0.13794 17.0079 0.149435C 16.5789 0.218405 16.15 0.264386 15.721 0.344851C 15.4311 0.402326 15.1413 0.471296 14.8515 0.551761C 14.5616 0.620731 14.2602 0.678206 13.9703 0.758672C 13.6457 0.862127 13.3211 0.977077 12.9965 1.09203C 12.753 1.17249 12.5096 1.25296 12.2777 1.34492C 11.9415 1.47136 11.6284 1.6208 11.3038 1.75874C 11.0719 1.87369 10.8401 1.97714 10.6198 2.09209C 10.3067 2.24153 10.0169 2.40246 9.71547 2.57489C 9.472 2.71283 9.24014 2.85077 8.99667 3.0002C 8.74161 3.17263 8.48654 3.34505 8.23148 3.51748C 7.96483 3.7014 7.70978 3.89681 7.45472 4.09223C 7.23444 4.26465 7.01415 4.43708 6.81705 4.6095C 6.67793 4.72445 6.55042 4.81642 6.42289 4.91987C 6.29536 5.04632 6.17942 5.18426 6.0403 5.29921C 5.92436 5.41416 5.79682 5.51761 5.68089 5.63256C 5.57654 5.73602 5.48378 5.85097 5.36785 5.96592C 5.14757 6.20731 4.9273 6.44871 4.70702 6.6901C 4.48674 6.943 4.27806 7.19589 4.08097 7.46027C 3.90707 7.67868 3.73317 7.90858 3.55926 8.13848C 3.33898 8.44884 3.13028 8.7707 2.93318 9.09256C 2.81725 9.27648 2.68974 9.46041 2.58539 9.65582C 2.36512 10.0467 2.15641 10.426 1.95932 10.8283C 1.88976 10.9663 1.82021 11.1042 1.76224 11.2536C 1.55355 11.6904 1.36806 12.1502 1.19415 12.61C 1.15937 12.7135 1.11298 12.8284 1.0782 12.9319C 0.904291 13.4147 0.765193 13.909 0.637663 14.4033C 0.614476 14.5067 0.579671 14.6102 0.556484 14.7021C 0.440547 15.1964 0.347815 15.6907 0.26666 16.185C 0.243473 16.3114 0.220288 16.4379 0.208695 16.5758C 0.139133 17.0356 0.092739 17.4954 0.0579577 17.9667C 0.0463643 18.1391 0.0463656 18.3231 0.0347718 18.4955C 0.0347718 18.7369 -7.03279e-06 18.9783 -7.03279e-06 19.2197L -7.03279e-06 139.228C 0.0115867 149.826 8.70684 158.447 19.3962 158.447C 30.0855 158.447 38.7924 149.826 38.7924 139.228L 38.7924 69.384L 113.745 152.068C 113.873 152.206 114 152.321 114.128 152.459C 114.36 152.688 114.592 152.918 114.812 153.137C 115.055 153.367 115.299 153.574 115.554 153.792C 115.797 154.01 116.052 154.206 116.307 154.413C 116.563 154.597 116.818 154.781 117.073 154.964C 117.363 155.171 117.664 155.355 117.965 155.551C 118.209 155.689 118.441 155.85 118.696 155.976C 119.044 156.183 119.415 156.355 119.786 156.539C 119.994 156.631 120.203 156.746 120.412 156.838C 120.841 157.022 121.27 157.171 121.722 157.332C 121.896 157.401 122.07 157.459 122.243 157.516C 122.719 157.677 123.206 157.804 123.704 157.919C 123.855 157.953 124.006 157.999 124.156 158.034C 124.655 158.137 125.165 158.206 125.675 158.275C 125.837 158.298 125.988 158.332 126.139 158.344C 126.719 158.401 127.298 158.424 127.89 158.436C 127.982 158.436 128.063 158.447 128.156 158.447L 128.179 158.447C 128.817 158.447 129.443 158.413 130.058 158.355C 130.255 158.332 130.44 158.298 130.637 158.275C 131.066 158.218 131.495 158.16 131.924 158.08C 132.144 158.034 132.353 157.988 132.573 157.93C 132.968 157.838 133.35 157.746 133.721 157.631C 133.941 157.574 134.15 157.493 134.359 157.424C 134.741 157.298 135.124 157.171 135.483 157.022C 135.68 156.942 135.866 156.85 136.051 156.769C 136.434 156.608 136.805 156.424 137.188 156.229C 137.338 156.148 137.512 156.056 137.675 155.964C 138.046 155.758 138.428 155.528 138.788 155.298C 138.927 155.206 139.066 155.102 139.217 155.01C 139.576 154.758 139.935 154.493 140.283 154.217C 140.411 154.114 140.538 154.01 140.666 153.895C 140.816 153.769 140.979 153.654 141.13 153.528C 141.303 153.378 141.443 153.206 141.605 153.045C 141.767 152.895 141.929 152.734 142.08 152.585C 142.382 152.275 142.66 151.964 142.938 151.654C 143.066 151.504 143.193 151.344 143.321 151.194C 143.587 150.861 143.842 150.516 144.086 150.171C 144.202 149.999 144.318 149.838 144.434 149.654C 144.654 149.32 144.863 148.976 145.071 148.619C 145.187 148.412 145.292 148.194 145.408 147.975C 145.57 147.654 145.732 147.343 145.871 147.01C 146.01 146.745 146.115 146.458 146.231 146.171C 146.335 145.895 146.439 145.619 146.544 145.343C 146.648 144.998 146.752 144.665 146.845 144.32C 146.915 144.079 146.984 143.837 147.042 143.584C 147.123 143.217 147.193 142.849 147.263 142.469C 147.309 142.228 147.344 141.987 147.378 141.745C 147.425 141.377 147.46 140.998 147.494 140.63C 147.506 140.354 147.518 140.09 147.529 139.825C 147.541 139.619 147.564 139.423 147.564 139.216L 147.564 19.2197C 147.564 8.62127 138.857 1.29851e-09 128.168 1.29851e-09Z"/>
<path id="path2_fill" fill-rule="evenodd" d="M 103.798 119.997L 38.7924 119.997L 38.7924 97.5238L 83.0105 97.5238C 93.6999 97.5238 102.395 88.9025 102.407 78.2926C 102.407 67.6827 93.6999 59.0614 82.9989 59.0614L 38.7924 59.0729L 38.7924 38.4509L 103.798 38.4509C 108.98 38.4509 113.85 36.4507 117.513 32.8183C 121.177 29.1859 123.194 24.358 123.194 19.2197C 123.194 14.0929 121.177 9.26499 117.513 5.63256C 113.861 2.00013 108.98 1.29851e-09 103.798 1.29851e-09L 19.4078 1.29851e-09C 16.7296 1.29851e-09 14.179 0.540266 11.8719 1.51734C 4.90412 4.43708 0.0115886 11.2766 0.0115886 19.2197L -4.37084e-06 139.228C 0.0115894 149.826 8.71843 158.447 19.3962 158.447L 103.798 158.447C 114.499 158.447 123.194 149.826 123.194 139.228C 123.206 134.089 121.188 129.262 117.513 125.629C 113.85 121.985 108.98 119.997 103.798 119.997Z"/>
<path id="path3_fill" fill-rule="evenodd" d="M 82.3033 79.2237L 132.457 34.2897C 136.295 30.8526 138.567 26.1282 138.822 20.9899C 139.089 15.8631 137.315 10.9433 133.849 7.12692C 130.174 3.10366 124.922 0.793157 119.449 0.793157C 114.638 0.793157 110.024 2.56339 106.453 5.75901L 40.3575 64.9584C 39.7894 65.4757 39.2677 66.0159 38.7808 66.5792L 38.7808 19.2197C 38.7808 8.62127 30.0855 4.73207e-08 19.3846 4.73207e-08C 8.69524 4.73207e-08 5.30247e-09 8.62127 5.30247e-09 19.2312L 5.30247e-09 139.228C 5.30247e-09 149.826 8.68365 158.447 19.3614 158.447C 24.5785 158.447 29.4479 156.447 33.1115 152.815C 36.7635 149.182 38.7808 144.355 38.7808 139.228L 38.7808 91.8682C 39.2329 92.397 39.4996 92.6269 39.7546 92.8798C 39.9633 93.0867 40.1604 93.2936 40.3691 93.5005C 40.4387 93.558 106.453 152.7 106.453 152.7C 110.024 155.896 114.638 157.654 119.426 157.654C 124.922 157.654 130.162 155.355 133.849 151.321C 137.315 147.516 139.089 142.584 138.822 137.458C 138.567 132.331 136.295 127.606 132.457 124.158L 82.3033 79.2237Z"/>
<path id="path4_fill" d="M 3.08323e-08 13.5026C 3.08323e-08 1.47458 8.70089 -3.4476 19.3282 2.56641L 257.868 137.568C 268.495 143.582 268.495 153.418 257.868 159.432L 19.3282 294.434C 8.70089 300.448 3.08323e-08 295.525 3.08323e-08 283.497L 3.08323e-08 13.5026Z"/>
<path id="path5_fill" fill-rule="evenodd" d="M 334.888 164.132C 334.888 254.781 259.922 328.264 167.444 328.264C 74.9664 328.264 -2.24694e-06 254.781 -2.24694e-06 164.132C -2.24694e-06 73.4836 74.9664 -1.7165e-06 167.444 -1.7165e-06C 259.922 -1.7165e-06 334.888 73.4836 334.888 164.132Z"/>
<path id="path6_fill" d="M 334.898 164.141C 334.898 254.781 259.922 328.273 167.444 328.273C 74.9664 328.273 8.7257e-08 254.781 8.7257e-08 164.141C 8.7257e-08 73.4836 74.9664 -4.14708e-08 167.444 -4.14708e-08C 259.922 -4.14708e-08 334.898 73.4836 334.898 164.141Z"/>
<path id="path7_fill" fill-rule="evenodd" d="M 107.561 210.866C 48.1608 210.866 -1.28124e-06 163.658 -1.28124e-06 105.433C -1.28124e-06 47.2082 48.1608 4.49762e-09 107.561 4.49762e-09C 166.96 4.49762e-09 215.121 47.2082 215.121 105.433C 215.121 163.658 166.96 210.866 107.561 210.866Z"/>
<path id="path8_fill" d="M 181.103 88.7603C 181.103 137.785 140.565 177.521 90.5513 177.521C 40.5372 177.521 -4.19636e-07 137.785 -4.19636e-07 88.7603C -4.19636e-07 39.7443 40.5372 -1.66753e-06 90.5513 -1.66753e-06C 140.565 -1.66753e-06 181.103 39.7443 181.103 88.7603Z"/>
</defs>
</svg>
