<svg width="98" height="98" viewBox="0 0 98 98" fill="none" xmlns="http://www.w3.org/2000/svg">
<path fill-rule="evenodd" clip-rule="evenodd" d="M65.3333 36.75C59.9185 36.75 54.7254 38.901 50.8966 42.7299C47.0677 46.5588 44.9167 51.7518 44.9167 57.1667V81.6667H53.0833V57.1667C53.0833 53.9178 54.374 50.8019 56.6713 48.5046C58.9686 46.2073 62.0844 44.9167 65.3333 44.9167C68.5822 44.9167 71.6981 46.2073 73.9954 48.5046C76.2927 50.8019 77.5833 53.9178 77.5833 57.1667V81.6667H85.75V57.1667C85.75 51.7518 83.599 46.5588 79.7701 42.7299C75.9412 38.901 70.7482 36.75 65.3333 36.75ZM65.3333 28.5833C57.7526 28.5833 50.4823 31.5948 45.1219 36.9552C39.7615 42.3156 36.75 49.5859 36.75 57.1667V85.75C36.75 88.0052 38.5782 89.8333 40.8333 89.8333H57.1667C59.4218 89.8333 61.25 88.0052 61.25 85.75V57.1667C61.25 56.0837 61.6802 55.0451 62.446 54.2793C63.2118 53.5136 64.2504 53.0833 65.3333 53.0833C66.4163 53.0833 67.4549 53.5136 68.2207 54.2793C68.9865 55.0451 69.4167 56.0837 69.4167 57.1667V85.75C69.4167 88.0052 71.2448 89.8333 73.5 89.8333H89.8333C92.0885 89.8333 93.9167 88.0052 93.9167 85.75V57.1667C93.9167 49.5859 90.9052 42.3156 85.5448 36.9552C80.1844 31.5948 72.9141 28.5833 65.3333 28.5833Z" fill="white"/>
<path fill-rule="evenodd" clip-rule="evenodd" d="M4.08334 36.75C4.08334 34.4948 5.91151 32.6667 8.16668 32.6667H24.5C26.7552 32.6667 28.5833 34.4948 28.5833 36.75V85.75C28.5833 88.0052 26.7552 89.8333 24.5 89.8333H8.16668C5.91151 89.8333 4.08334 88.0052 4.08334 85.75V36.75ZM12.25 40.8333V81.6667H20.4167V40.8333H12.25Z" fill="white"/>
<path fill-rule="evenodd" clip-rule="evenodd" d="M16.3333 12.25C14.0782 12.25 12.25 14.0782 12.25 16.3333C12.25 18.5885 14.0782 20.4167 16.3333 20.4167C18.5885 20.4167 20.4167 18.5885 20.4167 16.3333C20.4167 14.0782 18.5885 12.25 16.3333 12.25ZM4.08334 16.3333C4.08334 9.56786 9.56785 4.08334 16.3333 4.08334C23.0988 4.08334 28.5833 9.56786 28.5833 16.3333C28.5833 23.0988 23.0988 28.5833 16.3333 28.5833C9.56785 28.5833 4.08334 23.0988 4.08334 16.3333Z" fill="white"/>
</svg>
