<svg width="98" height="98" viewBox="0 0 98 98" fill="none" xmlns="http://www.w3.org/2000/svg">
<path fill-rule="evenodd" clip-rule="evenodd" d="M16.3333 20.4167C14.0968 20.4167 12.25 22.2635 12.25 24.5V73.5C12.25 75.7365 14.0968 77.5833 16.3333 77.5833H81.6667C83.9032 77.5833 85.75 75.7365 85.75 73.5V24.5C85.75 22.2635 83.9032 20.4167 81.6667 20.4167H16.3333ZM4.08334 24.5C4.08334 17.7532 9.58651 12.25 16.3333 12.25H81.6667C88.4135 12.25 93.9167 17.7532 93.9167 24.5V73.5C93.9167 80.2468 88.4135 85.75 81.6667 85.75H16.3333C9.58651 85.75 4.08334 80.2468 4.08334 73.5V24.5Z" fill="white"/>
<path fill-rule="evenodd" clip-rule="evenodd" d="M4.82146 22.1584C6.11472 20.3109 8.6608 19.8615 10.5083 21.1548L49 48.099L87.4917 21.1548C89.3392 19.8615 91.8853 20.3109 93.1785 22.1584C94.4718 24.0059 94.0225 26.5519 92.175 27.8452L51.3416 56.4285C49.9357 57.4127 48.0643 57.4127 46.6584 56.4285L5.82502 27.8452C3.97752 26.5519 3.52821 24.0059 4.82146 22.1584Z" fill="white"/>
</svg>
