<svg width="98" height="98" viewBox="0 0 98 98" fill="none" xmlns="http://www.w3.org/2000/svg">
<path d="M12 85H6.5L12 79.5M12 85V79.5M12 85H17L12 79.5M12 12L43.7391 74.9493L72.3044 12M12 12H6.5L12 17M12 12V17M72.3044 12H87.116M72.3044 12V80M72.3044 85H87.116M72.3044 85V80M72.3044 85H67.3043L72.3044 80M87.116 12H92L87.116 16.884M87.116 12V16.884M87.116 85V80M87.116 85H92.116L87.116 80M87.116 16.884V80M12 17V79.5" stroke="white" stroke-width="8" stroke-linecap="round" stroke-linejoin="round"/>
<path d="M50.616 56.9638L27.8696 12H12.529" stroke="white" stroke-width="8" stroke-linecap="round" stroke-linejoin="round"/>
</svg>
