<svg width="98" height="98" viewBox="0 0 98 98" fill="none" xmlns="http://www.w3.org/2000/svg">
<g clip-path="url(#clip0)">
<path d="M33.8917 89.425C23.275 89.425 12.25 86.5667 2.44998 80.85C0.816651 80.0333 -1.58822e-05 77.9917 0.408317 76.3583C0.816651 74.725 2.44998 73.5 4.08332 73.5C11.025 73.9083 17.9667 72.275 24.0917 69.4167C8.98332 60.025 4.89998 46.9583 4.49165 36.75C4.08332 24.9083 8.16665 15.1083 8.57498 14.7C8.98332 13.475 10.2083 12.25 11.8417 12.25C13.475 12.25 14.7 12.6583 15.5167 13.8833C22.4583 23.6833 33.075 29.8083 44.9167 30.625C44.9167 24.0917 47.775 17.9667 52.675 13.475C61.25 6.12499 73.9083 6.12499 82.4833 13.475C85.75 12.25 89.0167 10.6167 91.875 8.57499C93.1 7.75833 95.1417 7.75833 96.3667 8.57499C97.5917 9.39166 98.4083 11.4333 98 13.0667C96.775 18.7833 93.9167 24.0917 89.8333 28.5833C89.8333 29.4 89.8333 29.8083 89.8333 30.625C89.8333 53.0833 80.0333 71.8667 62.475 81.6667C53.9 86.975 44.1 89.425 33.8917 89.425ZM20.4167 79.625C33.8917 82.8917 47.3667 81.2583 58.8 74.725C73.5 66.15 82.075 49.8167 82.075 30.625C82.075 29.8083 82.075 28.9917 81.6667 28.175C81.2583 26.95 81.6667 25.3167 82.8917 24.5C83.7083 23.6833 84.525 22.4583 85.3417 21.6417C84.525 22.05 83.3 22.4583 82.4833 22.4583C80.85 22.8667 79.2167 22.4583 78.4 21.2333C73.0917 15.5167 64.1083 14.7 58.3917 20.0083C54.7167 22.4583 53.0833 26.5417 53.0833 30.625V34.7083C53.0833 36.75 51.45 38.7917 49 38.7917C35.525 39.2 22.8667 33.8917 13.8833 24.5C11.4333 35.1167 10.6167 55.125 34.3 65.3333C35.525 66.15 36.75 67.375 36.75 69.0083C36.75 70.6417 36.3417 71.8667 35.1167 72.6833C30.2167 75.95 25.3167 78.4 20.4167 79.625Z" fill="white"/>
</g>
<defs>
<clipPath id="clip0">
<rect width="98" height="98" fill="white"/>
</clipPath>
</defs>
</svg>
