<svg xmlns="http://www.w3.org/2000/svg" viewBox="0 0 285.78 285.78"><defs><style>.cls-1{fill:#bdd5df;}.cls-2{fill:#2b3a42;}.cls-3{fill:#405765;}.cls-4{font-size:139.98px;letter-spacing:-0.01em;}.cls-4,.cls-6,.cls-9{fill:#f0efef;}.cls-4,.cls-6{font-family:KlinicSlab-Bold, Klinic Slab;font-weight:700;}.cls-5{letter-spacing:0em;}.cls-6{font-size:66.31px;}.cls-7{letter-spacing:-0.02em;}.cls-8{letter-spacing:0em;}.cls-10,.cls-9{fill-rule:evenodd;}.cls-10{fill:none;stroke:#2b3a42;stroke-miterlimit:10;}</style></defs><title>Artboard 2</title><g id="Stamps"><g id="Stamp_Tilt" data-name="Stamp Tilt"><circle class="cls-1" cx="142.89" cy="142.89" r="142.88" transform="matrix(0.09, -1, 1, 0.09, -12.66, 271.89)"/><circle class="cls-2" cx="142.63" cy="142.87" r="137.55" transform="translate(-12.87 271.6) rotate(-84.67)"/><circle class="cls-3" cx="142.63" cy="142.87" r="132.05" transform="translate(-12.87 271.6) rotate(-84.67)"/><circle class="cls-2" cx="142.63" cy="142.87" r="125.05" transform="translate(-12.87 271.6) rotate(-84.67)"/><rect class="cls-2" x="138.32" y="5.86" width="9.58" height="269.5" transform="translate(-10.2 270.03) rotate(-84.67)"/><rect class="cls-2" x="8.35" y="135.82" width="269.5" height="9.58" transform="translate(-10.2 270.03) rotate(-84.67)"/><rect class="cls-2" x="138.05" y="5.84" width="9.58" height="269.5" transform="translate(-56.86 123.55) rotate(-39.67)"/><rect class="cls-2" x="8.09" y="135.8" width="269.5" height="9.58" transform="translate(-56.86 123.55) rotate(-39.67)"/><rect class="cls-2" x="138.32" y="5.86" width="9.58" height="269.5" transform="translate(-48.9 198.79) rotate(-61.35)"/><rect class="cls-2" x="8.35" y="135.82" width="269.5" height="9.58" transform="translate(-48.9 198.79) rotate(-61.35)"/><rect class="cls-2" x="138.08" y="5.74" width="9.57" height="269.5" transform="translate(-33.78 45.91) rotate(-16.35)"/><rect class="cls-2" x="8.12" y="135.7" width="269.5" height="9.58" transform="translate(-33.78 45.91) rotate(-16.35)"/><rect class="cls-2" x="138.05" y="5.84" width="9.58" height="269.5" transform="translate(-32.74 237.24) rotate(-73.38)"/><rect class="cls-2" x="8.09" y="135.8" width="269.5" height="9.58" transform="translate(-32.74 237.24) rotate(-73.38)"/><rect class="cls-2" x="137.8" y="5.76" width="9.58" height="269.5" transform="translate(-49.65 84.65) rotate(-28.38)"/><rect class="cls-2" x="7.84" y="135.72" width="269.5" height="9.58" transform="translate(-49.65 84.65) rotate(-28.38)"/><rect class="cls-2" x="138.05" y="5.84" width="9.58" height="269.5" transform="translate(-56.65 159.86) rotate(-50.06)"/><rect class="cls-2" x="8.09" y="135.8" width="269.5" height="9.58" transform="translate(-56.65 159.86) rotate(-50.06)"/><rect class="cls-2" x="137.85" y="5.67" width="9.57" height="269.5" transform="translate(-11.83 13.13) rotate(-5.06)"/><rect class="cls-2" x="7.89" y="135.63" width="269.5" height="9.58" transform="translate(-11.83 13.13) rotate(-5.06)"/><text class="cls-4" transform="matrix(0.76, 0.07, -0.09, 1, 21.91, 170.6)">B<tspan class="cls-5" x="85.81" y="0">AM</tspan></text><text class="cls-6" transform="matrix(1, 0.09, -0.09, 1, 110.3, 75.28)">it<tspan class="cls-7" x="42.31" y="0">’</tspan><tspan class="cls-8" x="55.3" y="0">s</tspan></text><path class="cls-9" d="M159.89,195.6l2.08.19a1.37,1.37,0,0,0,.2.1c.84.25,1.72.42,2.53.74a12.52,12.52,0,0,1,6.21,4.91,30.22,30.22,0,0,1,3.15,6.82,79.69,79.69,0,0,1,3.2,14.57c.49,3.7.81,7.43,1,11.15.16,2.53.05,5.08,0,7.63a31.76,31.76,0,0,1-1.15,8.1,12.59,12.59,0,0,1-2.42,4.88,4.5,4.5,0,0,1-2.48,1.65,8.57,8.57,0,0,1-3.39,0,13.68,13.68,0,0,1-6.06-3,38.18,38.18,0,0,1-5-5.23,53.62,53.62,0,0,0-6.43-6.77,14.56,14.56,0,0,0-6.25-3.33,71.26,71.26,0,0,0-7.3-1.16c-4-.41-8-.67-12-.95a27.94,27.94,0,0,0-3.55,0,15.84,15.84,0,0,0-7,2.33,58.38,58.38,0,0,0-7.42,5.44,37.43,37.43,0,0,1-5.39,3.87,12.9,12.9,0,0,1-8.17,1.81,4.67,4.67,0,0,1-3-1.22A8.4,8.4,0,0,1,90,246.27a15.26,15.26,0,0,1-1.31-6.72q0-.91,0-1.83l.38-4.07a1,1,0,0,0,.1-.25,80.61,80.61,0,0,1,2.16-10.47,108.77,108.77,0,0,1,4.36-13.22,59.25,59.25,0,0,1,5.74-11.36,20.34,20.34,0,0,1,3.57-4.09,12.85,12.85,0,0,1,6.27-2.71c.81-.14,1.64-.17,2.47-.25l2.08.19a2.7,2.7,0,0,0,.39.12,12.94,12.94,0,0,1,4,1.14c1.7.86,3.36,1.8,5,2.72a10.45,10.45,0,0,0,3.54,1.41c2.69.39,5.37.85,8.07,1.11s5.61.38,8.42.52a10.38,10.38,0,0,0,4.28-.6c1-.37,1.94-.67,2.9-1a18.29,18.29,0,0,1,5.46-1.23Z"/><path class="cls-10" d="M159.89,195.6l2.08.19a1.37,1.37,0,0,0,.2.1c.84.25,1.72.42,2.53.74a12.52,12.52,0,0,1,6.21,4.91,30.22,30.22,0,0,1,3.15,6.82,79.69,79.69,0,0,1,3.2,14.57c.49,3.7.81,7.43,1,11.15.16,2.53.05,5.08,0,7.63a31.76,31.76,0,0,1-1.15,8.1,12.59,12.59,0,0,1-2.42,4.88,4.5,4.5,0,0,1-2.48,1.65,8.57,8.57,0,0,1-3.39,0,13.68,13.68,0,0,1-6.06-3,38.18,38.18,0,0,1-5-5.23,53.62,53.62,0,0,0-6.43-6.77,14.56,14.56,0,0,0-6.25-3.33,71.26,71.26,0,0,0-7.3-1.16c-4-.41-8-.67-12-.95a27.94,27.94,0,0,0-3.55,0,15.84,15.84,0,0,0-7,2.33,58.38,58.38,0,0,0-7.42,5.44,37.43,37.43,0,0,1-5.39,3.87,12.9,12.9,0,0,1-8.17,1.81,4.67,4.67,0,0,1-3-1.22A8.4,8.4,0,0,1,90,246.27a15.26,15.26,0,0,1-1.31-6.72q0-.91,0-1.83l.38-4.07a1,1,0,0,0,.1-.25,80.61,80.61,0,0,1,2.16-10.47,108.77,108.77,0,0,1,4.36-13.22,59.25,59.25,0,0,1,5.74-11.36,20.34,20.34,0,0,1,3.57-4.09,12.85,12.85,0,0,1,6.27-2.71c.81-.14,1.64-.17,2.47-.25l2.08.19a2.7,2.7,0,0,0,.39.12,12.94,12.94,0,0,1,4,1.14c1.7.86,3.36,1.8,5,2.72a10.45,10.45,0,0,0,3.54,1.41c2.69.39,5.37.85,8.07,1.11s5.61.38,8.42.52a10.38,10.38,0,0,0,4.28-.6c1-.37,1.94-.67,2.9-1a18.29,18.29,0,0,1,5.46-1.23Zm-38.2,31.86a7.14,7.14,0,1,0-6.44-7.79A7.13,7.13,0,0,0,121.7,227.46Zm25.67.85a5.79,5.79,0,1,0-5.21-6.28A5.8,5.8,0,0,0,147.36,228.31Zm-30-23.41a5.5,5.5,0,1,0-11-1.05,5.5,5.5,0,1,0,11,1.05Zm18.75,7.87a4.72,4.72,0,1,0-4.26-5.12A4.75,4.75,0,0,0,136.07,212.77ZM162,206.6a2.91,2.91,0,1,0-2.64-3.18A2.92,2.92,0,0,0,162,206.6Zm5.81,7a2.91,2.91,0,1,0-2.62-3.17A2.93,2.93,0,0,0,167.8,213.63Zm-7,5.83a2.91,2.91,0,1,0-2.62-3.2A2.93,2.93,0,0,0,160.78,219.47Zm-5.83-7a2.91,2.91,0,1,0-2.63-3.19A2.92,2.92,0,0,0,155,212.43Z"/></g></g></svg>