<svg width="769" height="484" viewBox="0 0 769 484" version="1.1" xmlns="http://www.w3.org/2000/svg" xmlns:xlink="http://www.w3.org/1999/xlink">
<title>project_logo_pone</title>
<desc>Created using Figma</desc>
<g id="Canvas" transform="translate(-29152 -9573)">
<g id="project_logo_pone">
<g id="Artboard 42">
<g id="Layer 4">
<g id="Vector">
<use xlink:href="#path0_fill" transform="translate(29397.3 9587.23)"/>
</g>
<g id="Vector">
<use xlink:href="#path1_fill" transform="translate(29381.8 9573)" fill="#4D4D4D"/>
</g>
</g>
<g id="Layer 3">
<g id="Vector">
<use xlink:href="#path2_fill" transform="translate(29589 9680)" fill="url(#paint2_linear)"/>
</g>
<g id="Vector">
<use xlink:href="#path3_fill" transform="translate(29397.3 9680)" fill="url(#paint3_linear)"/>
</g>
<g id="Vector">
<use xlink:href="#path3_fill" transform="translate(29397.3 9680)" fill="url(#paint4_linear)"/>
</g>
<g id="Vector">
<use xlink:href="#path2_fill" transform="translate(29589 9680)" fill="url(#paint5_linear)"/>
</g>
<g id="Vector">
<use xlink:href="#path4_fill" transform="translate(29536.1 9589.43)" fill="url(#paint6_linear)"/>
</g>
<g id="Vector">
<use xlink:href="#path5_fill" transform="translate(29445.2 9589.43)" fill="url(#paint7_linear)"/>
</g>
<g id="Vector">
<use xlink:href="#path6_fill" transform="translate(29443.2 9587.23)" fill="#F2F2F2"/>
</g>
</g>
</g>
<g id="ESPORTS UNBOUND">
<use xlink:href="#path7_fill" transform="translate(29280.1 10023)" fill="#4D4D4D"/>
<use xlink:href="#path8_fill" transform="translate(29280.1 10023)" fill="#4D4D4D"/>
<use xlink:href="#path9_fill" transform="translate(29280.1 10023)" fill="#4D4D4D"/>
<use xlink:href="#path10_fill" transform="translate(29280.1 10023)" fill="#4D4D4D"/>
<use xlink:href="#path11_fill" transform="translate(29280.1 10023)" fill="#4D4D4D"/>
<use xlink:href="#path12_fill" transform="translate(29280.1 10023)" fill="#4D4D4D"/>
<use xlink:href="#path13_fill" transform="translate(29280.1 10023)" fill="#4D4D4D"/>
<use xlink:href="#path14_fill" transform="translate(29280.1 10023)" fill="#4D4D4D"/>
<use xlink:href="#path15_fill" transform="translate(29280.1 10023)" fill="#4D4D4D"/>
<use xlink:href="#path16_fill" transform="translate(29280.1 10023)" fill="#4D4D4D"/>
<use xlink:href="#path17_fill" transform="translate(29280.1 10023)" fill="#4D4D4D"/>
<use xlink:href="#path18_fill" transform="translate(29280.1 10023)" fill="#4D4D4D"/>
<use xlink:href="#path19_fill" transform="translate(29280.1 10023)" fill="#4D4D4D"/>
<use xlink:href="#path20_fill" transform="translate(29280.1 10023)" fill="#4D4D4D"/>
</g>
<g id="POSITION ONE">
<use xlink:href="#path21_fill" transform="translate(29152 9920.04)" fill="#333333"/>
<use xlink:href="#path22_fill" transform="translate(29152 9920.04)" fill="#333333"/>
<use xlink:href="#path23_fill" transform="translate(29152 9920.04)" fill="#333333"/>
<use xlink:href="#path24_fill" transform="translate(29152 9920.04)" fill="#333333"/>
<use xlink:href="#path25_fill" transform="translate(29152 9920.04)" fill="#333333"/>
<use xlink:href="#path26_fill" transform="translate(29152 9920.04)" fill="#333333"/>
<use xlink:href="#path27_fill" transform="translate(29152 9920.04)" fill="#333333"/>
<use xlink:href="#path28_fill" transform="translate(29152 9920.04)" fill="#333333"/>
<use xlink:href="#path29_fill" transform="translate(29152 9920.04)" fill="#333333"/>
<use xlink:href="#path30_fill" transform="translate(29152 9920.04)" fill="#333333"/>
<use xlink:href="#path31_fill" transform="translate(29152 9920.04)" fill="#333333"/>
</g>
</g>
</g>
<defs>
<linearGradient id="paint2_linear" x1="0" y1="0" x2="1" y2="0" gradientUnits="userSpaceOnUse" gradientTransform="matrix(0 -142.274 142.255 0 -28.1294 142.274)">
<stop offset="0" stop-color="#F89000"/>
<stop offset="1" stop-color="#FFC436"/>
</linearGradient>
<linearGradient id="paint3_linear" x1="0" y1="0" x2="1" y2="0" gradientUnits="userSpaceOnUse" gradientTransform="matrix(0 -142.274 142.255 0 -28.1294 142.274)">
<stop offset="0" stop-color="#F87F00"/>
<stop offset="1" stop-color="#FFA936"/>
</linearGradient>
<linearGradient id="paint4_linear" x1="0" y1="0" x2="1" y2="0" gradientUnits="userSpaceOnUse" gradientTransform="matrix(-87.6726 -23.4988 23.4956 -87.6844 62.0917 118.973)">
<stop offset="0" stop-color="#000000" stop-opacity="0.3"/>
<stop offset="0.44" stop-color="#FFFFFF" stop-opacity="0"/>
</linearGradient>
<linearGradient id="paint5_linear" x1="0" y1="0" x2="1" y2="0" gradientUnits="userSpaceOnUse" gradientTransform="matrix(5531.26 -2452.81 -1482.34 -9152.5 76907.2 24084.9)">
<stop offset="0" stop-color="#FFFFFF" stop-opacity="0"/>
<stop offset="0.44" stop-color="#000000" stop-opacity="0.3"/>
</linearGradient>
<linearGradient id="paint6_linear" x1="0" y1="0" x2="1" y2="0" gradientUnits="userSpaceOnUse" gradientTransform="matrix(0 -303.822 303.781 0 -106.466 303.822)">
<stop offset="0" stop-color="#00867A"/>
<stop offset="1" stop-color="#00A99D"/>
</linearGradient>
<linearGradient id="paint7_linear" x1="0" y1="0" x2="1" y2="0" gradientUnits="userSpaceOnUse" gradientTransform="matrix(0 -303.822 303.781 0 -106.453 303.822)">
<stop offset="0" stop-color="#006E54"/>
<stop offset="1" stop-color="#00867A"/>
</linearGradient>
<path id="path0_fill" d="M 277.682 92.7685L 202.834 98.3706L 195.175 54.876L 138.439 -5.71954e-07L 81.9894 54.876L 74.3166 98.3297L -1.55967e-07 92.7685L 51.9248 225.038L 45.9146 259.059L 138.439 307.802L 231.113 259.059L 225.321 226.142L 277.682 92.7685Z"/>
<path id="path1_fill" d="M 153.907 333.59L 50.0168 278.851L 56.8311 240.318L -2.59944e-08 95.59L 81.3217 101.669L 87.9724 64.0629L 153.894 1.937e-14L 220.142 64.0629L 226.766 101.724L 308.619 95.6036L 251.379 241.449L 257.893 278.864L 153.907 333.59ZM 72.7357 267.715L 153.907 310.473L 235.215 267.701L 230.214 239.309L 277.682 118.407L 209.825 123.478L 201.144 74.1358L 153.921 28.4739L 106.957 74.1358L 98.2347 123.437L 30.9232 118.407L 77.9963 238.205L 72.7357 267.715Z"/>
<path id="path2_fill" d="M -1.66364e-06 6.43355L 85.9826 0L 30.1328 142.274L -1.66364e-06 6.43355Z"/>
<path id="path3_fill" d="M 85.9826 6.43355L -1.55967e-07 0L 55.8499 142.274L 85.9826 6.43355Z"/>
<path id="path4_fill" d="M 0 2.59979e-07L 55.1275 53.4584L 90.848 256.006L 0 303.835L 0 2.59979e-07Z"/>
<path id="path5_fill" d="M 90.8753 2.59979e-07L 35.6932 53.4584L -4.15911e-07 256.006L 90.8753 303.835L 90.8753 2.59979e-07Z"/>
<path id="path6_fill" d="M 1.8716e-06 259.059L 36.0884 54.876L 92.5243 -5.71954e-07L 149.26 54.876L 185.199 259.059L 92.5243 307.802L 1.8716e-06 259.059ZM 92.538 300.673L 178.207 255.611L 143.359 57.9837L 92.538 8.79161L 41.9351 57.9837L 7.07323 255.625L 92.538 300.673Z"/>
<path id="path7_fill" d="M 0.680974 34.0178C 0.226991 34.0178 0 33.7904 0 33.3355L 0 0.682306C 0 0.227435 0.226991 0 0.680974 0L 18.3377 0C 18.4998 0 18.6457 0.0649817 18.7754 0.194945C 18.9376 0.324908 19.0186 0.487362 19.0186 0.682306L 19.0186 3.85016C 19.0186 4.0451 18.9376 4.20755 18.7754 4.33752C 18.6457 4.46748 18.4998 4.53246 18.3377 4.53246L 4.52361 4.53246L 4.52361 14.7183L 15.4192 14.7183C 15.8732 14.7183 16.1002 14.9458 16.1002 15.4006L 16.1002 18.5685C 16.1002 19.0233 15.8732 19.2508 15.4192 19.2508L 4.52361 19.2508L 4.52361 29.4854L 18.3377 29.4854C 18.4998 29.4854 18.6457 29.5504 18.7754 29.6803C 18.9376 29.8103 19.0186 29.9727 19.0186 30.1677L 19.0186 33.3355C 19.0186 33.5305 18.9376 33.6929 18.7754 33.8229C 18.6457 33.9529 18.4998 34.0178 18.3377 34.0178L 0.680974 34.0178Z"/>
<path id="path8_fill" d="M 50.7622 33.4817C 50.4055 33.8391 50.0002 34.0178 49.5462 34.0178L 36.9968 34.0178C 36.5104 34.0178 36.0888 33.8391 35.7321 33.4817L 33.0082 30.7525C 32.7488 30.4926 32.5867 30.2814 32.5218 30.1189C 32.4894 29.924 32.4732 29.729 32.4732 29.5341L 32.4732 24.7092C 32.4732 24.2544 32.7002 24.0269 33.1542 24.0269L 36.3158 24.0269C 36.7698 24.0269 36.9968 24.2544 36.9968 24.7092L 36.9968 27.5847C 36.9968 27.7471 37.0779 27.9096 37.24 28.072L 38.456 29.2904C 38.5858 29.4204 38.7317 29.4854 38.8938 29.4854L 47.7951 29.4854C 47.9248 29.4854 48.0545 29.4204 48.1842 29.2904L 49.4003 28.1208C 49.4651 28.0558 49.4975 27.9745 49.4975 27.8771L 49.4975 20.7129L 48.0383 19.2995L 36.8509 19.2995C 36.6888 19.2995 36.5104 19.267 36.3158 19.202C 36.1537 19.1371 35.9591 18.9909 35.7321 18.7634L 33.0082 16.0342C 32.7164 15.7418 32.5543 15.5143 32.5218 15.3519C 32.4894 15.1569 32.4732 14.9782 32.4732 14.8158L 32.4732 4.48373C 32.4732 4.02885 32.6515 3.62272 33.0082 3.26532L 35.7321 0.487361C 35.8943 0.324907 36.0402 0.21119 36.1699 0.146209C 36.3321 0.0487365 36.5915 0 36.9482 0L 49.5462 0C 49.611 0 49.757 0.0162452 49.984 0.0487355C 50.2434 0.0812278 50.5028 0.227436 50.7622 0.487361L 53.5348 3.21658C 53.6969 3.37904 53.8104 3.55774 53.8752 3.75268C 53.9725 3.91514 54.0212 4.15882 54.0212 4.48373L 54.0212 9.60102C 54.0212 10.0559 53.7942 10.2833 53.3402 10.2833L 50.1785 10.2833C 49.7245 10.2833 49.4975 10.0559 49.4975 9.60102L 49.4975 6.3357C 49.4975 6.17324 49.4327 6.02704 49.303 5.89707L 48.087 4.62993C 48.0221 4.56495 47.9573 4.53246 47.8924 4.53246L 38.5533 4.53246C 38.456 4.53246 38.375 4.56495 38.3101 4.62993L 37.1427 5.84834C 37.0455 5.94581 36.9968 6.07577 36.9968 6.23823L 36.9968 13.0126C 36.9968 13.1425 37.0617 13.2725 37.1914 13.4024L 38.3101 14.5234C 38.4723 14.6858 38.6506 14.7671 38.8452 14.7671L 49.5948 14.7671C 49.757 14.7671 49.9191 14.7995 50.0812 14.8645C 50.2758 14.897 50.5028 15.0432 50.7622 15.3032L 53.5348 18.0324C 53.859 18.3573 54.0212 18.7797 54.0212 19.2995L 54.0212 29.4854C 54.0212 29.5503 54.0049 29.7128 53.9725 29.9727C 53.9401 30.2002 53.778 30.4601 53.4861 30.7525L 50.7622 33.4817Z"/>
<path id="path9_fill" d="M 86.2223 20.9565C 85.9953 21.184 85.7845 21.3302 85.5899 21.3952C 85.3954 21.4601 85.1846 21.4926 84.9576 21.4926L 73.381 21.4926L 73.381 33.3355C 73.381 33.7904 73.1541 34.0178 72.7001 34.0178L 69.5384 34.0178C 69.0844 34.0178 68.8574 33.7904 68.8574 33.3355L 68.8574 0.682306C 68.8574 0.227435 69.0844 0 69.5384 0L 84.9576 0C 85.1197 0 85.3143 0.0324913 85.5413 0.0974739C 85.7683 0.129964 85.9953 0.259927 86.2223 0.487361L 88.9462 3.21658C 89.3029 3.57398 89.4812 4.01261 89.4812 4.53246L 89.4812 17.0089C 89.4812 17.4638 89.3029 17.8699 88.9462 18.2273L 86.2223 20.9565ZM 84.9576 15.2057L 84.9576 6.3357C 84.9576 6.17324 84.8928 6.02704 84.763 5.89707L 83.4984 4.62993C 83.4335 4.56495 83.32 4.53246 83.1579 4.53246L 73.381 4.53246L 73.381 16.9602L 83.2065 16.9602C 83.3362 16.8952 83.4335 16.8302 83.4984 16.7652L 84.763 15.5468L 84.9576 15.2057Z"/>
<path id="path10_fill" d="M 122.092 33.4817C 121.93 33.6442 121.751 33.7741 121.557 33.8716C 121.395 33.9691 121.168 34.0178 120.876 34.0178L 108.278 34.0178C 107.986 34.0178 107.743 33.9691 107.548 33.8716C 107.386 33.7741 107.224 33.6442 107.062 33.4817L 104.338 30.7525C 104.111 30.5251 103.965 30.3139 103.9 30.1189C 103.835 29.8915 103.803 29.6803 103.803 29.4854L 103.803 4.48373C 103.803 3.96387 103.965 3.54149 104.289 3.21658L 107.062 0.487361C 107.256 0.292417 107.435 0.162455 107.597 0.0974739C 107.792 0.0324913 108.002 0 108.229 0L 120.876 0C 121.071 0 121.265 0.0324913 121.46 0.0974739C 121.654 0.129964 121.865 0.259927 122.092 0.487361L 124.865 3.21658C 125.124 3.47651 125.27 3.73644 125.302 3.99636C 125.335 4.2238 125.351 4.41874 125.351 4.5812L 125.351 29.2904C 125.351 29.9077 125.173 30.3951 124.816 30.7525L 122.092 33.4817ZM 120.73 28.1208C 120.795 28.0558 120.827 27.9745 120.827 27.8771L 120.827 5.89707L 119.611 4.67867C 119.514 4.5812 119.401 4.53246 119.271 4.53246L 109.883 4.53246C 109.753 4.53246 109.64 4.5812 109.543 4.67867L 108.327 5.89707L 108.327 27.8771C 108.327 27.9745 108.359 28.0558 108.424 28.1208L 109.591 29.2904C 109.721 29.4204 109.851 29.4854 109.98 29.4854L 119.076 29.4854C 119.271 29.4854 119.433 29.4204 119.563 29.2904L 120.73 28.1208Z"/>
<path id="path11_fill" d="M 158.423 34.0178C 158.261 34.0178 158.083 33.9529 157.888 33.8229C 157.726 33.6604 157.612 33.498 157.547 33.3355L 152.781 21.4926L 144.804 21.4926L 144.804 33.3355C 144.804 33.7904 144.577 34.0178 144.123 34.0178L 140.961 34.0178C 140.507 34.0178 140.28 33.7904 140.28 33.3355L 140.28 0.682306C 140.28 0.227435 140.507 0 140.961 0L 156.38 0C 156.607 0 156.802 0.0162452 156.964 0.0487355C 157.158 0.0812278 157.385 0.227436 157.645 0.487361L 160.369 3.21658C 160.498 3.34655 160.612 3.52525 160.709 3.75268C 160.839 3.98012 160.904 4.2238 160.904 4.48373L 160.904 16.8627C 160.904 17.0252 160.871 17.2364 160.806 17.4963C 160.774 17.7237 160.628 17.9674 160.369 18.2273L 157.45 21.1515L 162.363 33.3355C 162.428 33.498 162.412 33.6604 162.314 33.8229C 162.217 33.9529 162.039 34.0178 161.779 34.0178L 158.423 34.0178ZM 156.186 15.5956C 156.315 15.4656 156.38 15.3356 156.38 15.2057L 156.38 6.3357C 156.38 6.17324 156.315 6.02704 156.186 5.89707L 155.018 4.72741C 154.888 4.59744 154.743 4.53246 154.58 4.53246L 144.804 4.53246L 144.804 16.9602L 154.629 16.9602C 154.726 16.9602 154.824 16.9114 154.921 16.814L 156.186 15.5956Z"/>
<path id="path12_fill" d="M 182.712 34.0178C 182.549 34.0178 182.404 33.9691 182.274 33.8716C 182.177 33.7417 182.128 33.5955 182.128 33.433L 182.128 4.5812L 174.686 4.5812C 174.491 4.5812 174.329 4.51622 174.199 4.38625C 174.07 4.2238 174.005 4.06135 174.005 3.89889L 174.005 0.731041C 174.005 0.536097 174.07 0.373644 174.199 0.24368C 174.329 0.0812268 174.491 0 174.686 0L 194.142 0C 194.337 0 194.499 0.0812268 194.629 0.24368C 194.758 0.373644 194.823 0.536097 194.823 0.731041L 194.823 3.89889C 194.823 4.06135 194.758 4.2238 194.629 4.38625C 194.499 4.51622 194.337 4.5812 194.142 4.5812L 186.7 4.5812L 186.7 33.433C 186.7 33.5955 186.635 33.7417 186.506 33.8716C 186.408 33.9691 186.279 34.0178 186.116 34.0178L 182.712 34.0178Z"/>
<path id="path13_fill" d="M 226.278 33.4817C 225.922 33.8391 225.516 34.0178 225.062 34.0178L 212.513 34.0178C 212.027 34.0178 211.605 33.8391 211.248 33.4817L 208.524 30.7525C 208.265 30.4926 208.103 30.2814 208.038 30.1189C 208.006 29.924 207.989 29.729 207.989 29.5341L 207.989 24.7092C 207.989 24.2544 208.216 24.0269 208.67 24.0269L 211.832 24.0269C 212.286 24.0269 212.513 24.2544 212.513 24.7092L 212.513 27.5847C 212.513 27.7471 212.594 27.9096 212.756 28.072L 213.972 29.2904C 214.102 29.4204 214.248 29.4854 214.41 29.4854L 223.311 29.4854C 223.441 29.4854 223.571 29.4204 223.7 29.2904L 224.916 28.1208C 224.981 28.0558 225.014 27.9745 225.014 27.8771L 225.014 20.7129L 223.554 19.2995L 212.367 19.2995C 212.205 19.2995 212.027 19.267 211.832 19.202C 211.67 19.1371 211.475 18.9909 211.248 18.7634L 208.524 16.0342C 208.233 15.7418 208.07 15.5143 208.038 15.3519C 208.006 15.1569 207.989 14.9782 207.989 14.8158L 207.989 4.48373C 207.989 4.02885 208.168 3.62272 208.524 3.26532L 211.248 0.487361C 211.41 0.324907 211.556 0.21119 211.686 0.146209C 211.848 0.0487365 212.108 0 212.464 0L 225.062 0C 225.127 0 225.273 0.0162452 225.5 0.0487355C 225.76 0.0812278 226.019 0.227436 226.278 0.487361L 229.051 3.21658C 229.213 3.37904 229.327 3.55774 229.391 3.75268C 229.489 3.91514 229.537 4.15882 229.537 4.48373L 229.537 9.60102C 229.537 10.0559 229.31 10.2833 228.856 10.2833L 225.695 10.2833C 225.241 10.2833 225.014 10.0559 225.014 9.60102L 225.014 6.3357C 225.014 6.17324 224.949 6.02704 224.819 5.89707L 223.603 4.62993C 223.538 4.56495 223.473 4.53246 223.409 4.53246L 214.069 4.53246C 213.972 4.53246 213.891 4.56495 213.826 4.62993L 212.659 5.84834C 212.562 5.94581 212.513 6.07577 212.513 6.23823L 212.513 13.0126C 212.513 13.1425 212.578 13.2725 212.708 13.4024L 213.826 14.5234C 213.988 14.6858 214.167 14.7671 214.361 14.7671L 225.111 14.7671C 225.273 14.7671 225.435 14.7995 225.597 14.8645C 225.792 14.897 226.019 15.0432 226.278 15.3032L 229.051 18.0324C 229.375 18.3573 229.537 18.7797 229.537 19.2995L 229.537 29.4854C 229.537 29.5503 229.521 29.7128 229.489 29.9727C 229.456 30.2002 229.294 30.4601 229.002 30.7525L 226.278 33.4817Z"/>
<path id="path14_fill" d="M 283.93 33.4817C 283.768 33.6442 283.59 33.7741 283.395 33.8716C 283.201 33.9691 282.974 34.0178 282.714 34.0178L 270.165 34.0178C 269.84 34.0178 269.581 33.9691 269.386 33.8716C 269.224 33.7741 269.062 33.6442 268.9 33.4817L 266.176 30.7525C 265.819 30.3951 265.641 29.9727 265.641 29.4854L 265.641 0.682306C 265.641 0.519852 265.706 0.373644 265.836 0.24368C 265.965 0.0812268 266.128 0 266.322 0L 269.484 0C 269.678 0 269.84 0.0812268 269.97 0.24368C 270.1 0.373644 270.165 0.519852 270.165 0.682306L 270.165 27.7309L 270.359 28.072L 271.624 29.2904C 271.754 29.4204 271.9 29.4854 272.062 29.4854L 280.768 29.4854C 281.028 29.4854 281.222 29.4204 281.352 29.2904L 282.568 28.072C 282.633 28.007 282.665 27.9421 282.665 27.8771L 282.665 0.682306C 282.665 0.519852 282.73 0.373644 282.86 0.24368C 282.99 0.0812268 283.152 0 283.346 0L 286.508 0C 286.703 0 286.865 0.0812268 286.995 0.24368C 287.124 0.373644 287.189 0.519852 287.189 0.682306L 287.189 29.5341C 287.189 29.989 287.011 30.3951 286.654 30.7525L 283.93 33.4817Z"/>
<path id="path15_fill" d="M 318.943 34.0178C 318.749 34.0178 318.587 33.9529 318.457 33.8229C 318.327 33.6929 318.23 33.5467 318.165 33.3843L 306.734 8.33388L 306.734 33.3355C 306.734 33.7904 306.507 34.0178 306.053 34.0178L 302.892 34.0178C 302.438 34.0178 302.211 33.7904 302.211 33.3355L 302.211 0.682306C 302.211 0.227435 302.438 0 302.892 0L 307.513 0C 307.707 0 307.853 0.0649817 307.95 0.194945C 308.048 0.292418 308.145 0.454872 308.242 0.682306L 318.651 24.0269L 318.651 0.682306C 318.651 0.487362 318.716 0.324908 318.846 0.194945C 319.008 0.0649817 319.17 0 319.332 0L 322.494 0C 322.689 0 322.851 0.0649817 322.981 0.194945C 323.143 0.324908 323.224 0.487362 323.224 0.682306L 323.224 33.3355C 323.224 33.5305 323.143 33.6929 322.981 33.8229C 322.851 33.9529 322.689 34.0178 322.494 34.0178L 318.943 34.0178Z"/>
<path id="path16_fill" d="M 355.762 33.4817C 355.405 33.8391 354.984 34.0178 354.497 34.0178L 339.078 34.0178C 338.624 34.0178 338.397 33.7904 338.397 33.3355L 338.397 0.682306C 338.397 0.227435 338.624 0 339.078 0L 354.497 0C 354.659 0 354.838 0.0162452 355.032 0.0487355C 355.259 0.0812278 355.503 0.227436 355.762 0.487361L 358.486 3.21658C 358.778 3.54149 358.94 3.81767 358.972 4.0451C 359.005 4.24004 359.021 4.38625 359.021 4.48373L 359.021 13.4024C 359.021 13.6299 358.988 13.8411 358.924 14.036C 358.891 14.1985 358.745 14.4097 358.486 14.6696L 356.589 16.5703L 358.486 18.5197C 358.745 18.7797 358.891 18.9909 358.924 19.1533C 358.988 19.3158 359.021 19.5269 359.021 19.7869L 359.021 29.5341C 359.021 29.989 358.842 30.3951 358.486 30.7525L 355.762 33.4817ZM 354.254 28.1208C 354.416 27.9583 354.497 27.7796 354.497 27.5847L 354.497 21.3464C 354.497 21.249 354.481 21.1352 354.449 21.0053C 354.416 20.8753 354.351 20.7616 354.254 20.6641L 353.038 19.4457L 352.698 19.2508L 342.921 19.2508L 342.921 29.4854L 352.843 29.4854L 353.038 29.3392L 354.254 28.1208ZM 354.254 13.2562C 354.416 13.0938 354.497 12.9313 354.497 12.7689L 354.497 6.48191C 354.497 6.31945 354.465 6.20574 354.4 6.14075C 354.368 6.07577 354.319 5.99455 354.254 5.89707L 353.038 4.62993C 352.973 4.56495 352.876 4.53246 352.746 4.53246L 342.921 4.53246L 342.921 14.7183L 352.552 14.7183C 352.714 14.7183 352.876 14.6371 353.038 14.4746L 354.254 13.2562Z"/>
<path id="path17_fill" d="M 391.917 33.4817C 391.754 33.6442 391.576 33.7741 391.382 33.8716C 391.219 33.9691 390.992 34.0178 390.701 34.0178L 378.103 34.0178C 377.811 34.0178 377.568 33.9691 377.373 33.8716C 377.211 33.7741 377.049 33.6442 376.887 33.4817L 374.163 30.7525C 373.936 30.5251 373.79 30.3139 373.725 30.1189C 373.66 29.8915 373.628 29.6803 373.628 29.4854L 373.628 4.48373C 373.628 3.96387 373.79 3.54149 374.114 3.21658L 376.887 0.487361C 377.081 0.292417 377.259 0.162455 377.422 0.0974739C 377.616 0.0324913 377.827 0 378.054 0L 390.701 0C 390.895 0 391.09 0.0324913 391.284 0.0974739C 391.479 0.129964 391.69 0.259927 391.917 0.487361L 394.689 3.21658C 394.949 3.47651 395.094 3.73644 395.127 3.99636C 395.159 4.2238 395.176 4.41874 395.176 4.5812L 395.176 29.2904C 395.176 29.9077 394.997 30.3951 394.641 30.7525L 391.917 33.4817ZM 390.555 28.1208C 390.62 28.0558 390.652 27.9745 390.652 27.8771L 390.652 5.89707L 389.436 4.67867C 389.339 4.5812 389.225 4.53246 389.095 4.53246L 379.708 4.53246C 379.578 4.53246 379.465 4.5812 379.367 4.67867L 378.151 5.89707L 378.151 27.8771C 378.151 27.9745 378.184 28.0558 378.248 28.1208L 379.416 29.2904C 379.546 29.4204 379.675 29.4854 379.805 29.4854L 388.901 29.4854C 389.095 29.4854 389.258 29.4204 389.387 29.2904L 390.555 28.1208Z"/>
<path id="path18_fill" d="M 428.248 33.4817C 428.086 33.6442 427.907 33.7741 427.713 33.8716C 427.518 33.9691 427.291 34.0178 427.032 34.0178L 414.482 34.0178C 414.158 34.0178 413.899 33.9691 413.704 33.8716C 413.542 33.7741 413.38 33.6442 413.218 33.4817L 410.494 30.7525C 410.137 30.3951 409.959 29.9727 409.959 29.4854L 409.959 0.682306C 409.959 0.519852 410.023 0.373644 410.153 0.24368C 410.283 0.0812268 410.445 0 410.64 0L 413.801 0C 413.996 0 414.158 0.0812268 414.288 0.24368C 414.417 0.373644 414.482 0.519852 414.482 0.682306L 414.482 27.7309L 414.677 28.072L 415.941 29.2904C 416.071 29.4204 416.217 29.4854 416.379 29.4854L 425.086 29.4854C 425.345 29.4854 425.54 29.4204 425.67 29.2904L 426.886 28.072C 426.951 28.007 426.983 27.9421 426.983 27.8771L 426.983 0.682306C 426.983 0.519852 427.048 0.373644 427.178 0.24368C 427.307 0.0812268 427.469 0 427.664 0L 430.826 0C 431.02 0 431.182 0.0812268 431.312 0.24368C 431.442 0.373644 431.507 0.519852 431.507 0.682306L 431.507 29.5341C 431.507 29.989 431.328 30.3951 430.972 30.7525L 428.248 33.4817Z"/>
<path id="path19_fill" d="M 463.261 34.0178C 463.066 34.0178 462.904 33.9529 462.774 33.8229C 462.645 33.6929 462.547 33.5467 462.483 33.3843L 451.052 8.33388L 451.052 33.3355C 451.052 33.7904 450.825 34.0178 450.371 34.0178L 447.209 34.0178C 446.755 34.0178 446.528 33.7904 446.528 33.3355L 446.528 0.682306C 446.528 0.227435 446.755 0 447.209 0L 451.83 0C 452.025 0 452.171 0.0649817 452.268 0.194945C 452.365 0.292418 452.463 0.454872 452.56 0.682306L 462.969 24.0269L 462.969 0.682306C 462.969 0.487362 463.034 0.324908 463.164 0.194945C 463.326 0.0649817 463.488 0 463.65 0L 466.812 0C 467.006 0 467.168 0.0649817 467.298 0.194945C 467.46 0.324908 467.541 0.487362 467.541 0.682306L 467.541 33.3355C 467.541 33.5305 467.46 33.6929 467.298 33.8229C 467.168 33.9529 467.006 34.0178 466.812 34.0178L 463.261 34.0178Z"/>
<path id="path20_fill" d="M 500.079 33.4817C 499.885 33.6767 499.706 33.8229 499.544 33.9204C 499.415 33.9853 499.171 34.0178 498.815 34.0178L 483.396 34.0178C 482.942 34.0178 482.715 33.7904 482.715 33.3355L 482.715 0.682306C 482.715 0.227435 482.942 0 483.396 0L 498.815 0C 499.009 0 499.204 0.0324913 499.398 0.0974739C 499.625 0.129964 499.852 0.259927 500.079 0.487361L 502.803 3.21658C 502.998 3.41153 503.128 3.60648 503.192 3.80142C 503.29 3.96387 503.338 4.19131 503.338 4.48373L 503.338 29.5341C 503.338 29.6641 503.306 29.8428 503.241 30.0702C 503.209 30.2651 503.063 30.4926 502.803 30.7525L 500.079 33.4817ZM 498.572 28.072C 498.669 27.9745 498.734 27.9096 498.766 27.8771C 498.799 27.8121 498.815 27.6984 498.815 27.5359L 498.815 6.38444C 498.815 6.28696 498.734 6.12451 498.572 5.89707L 497.355 4.62993C 497.291 4.56495 497.21 4.53246 497.112 4.53246L 487.238 4.53246L 487.238 29.4854L 497.015 29.4854L 497.355 29.2904L 498.572 28.072Z"/>
<path id="path21_fill" d="M 49.0771 0C 50.9557 0 52.7168 0.392129 54.3605 1.17639C 56.0825 1.88222 57.5306 2.86255 58.7047 4.11736C 59.957 5.29375 60.9355 6.74463 61.6399 8.47C 62.4226 10.117 62.814 11.8815 62.814 13.7638L 62.814 44.9381C 62.814 46.8203 62.4226 48.6241 61.6399 50.3495C 60.9355 51.9964 59.957 53.4473 58.7047 54.7021C 57.5306 55.8785 56.0825 56.8588 54.3605 57.6431C 52.7168 58.3489 50.9557 58.7018 49.0771 58.7018L 22.8948 58.7018C 22.2686 58.7018 21.7207 58.8979 21.2511 59.29C 20.8597 59.6822 20.664 60.1919 20.664 60.8193L 20.664 80.1121C 20.664 81.6022 19.9205 82.3473 18.4333 82.3473L 2.23078 82.3473C 0.743592 82.3473 0 81.6022 0 80.1121L 0 2.23514C 0 0.745046 0.743592 0 2.23078 0L 49.0771 0ZM 42.8544 39.5267L 42.8544 18.7046L 19.9596 18.7046L 19.9596 39.5267L 42.8544 39.5267Z"/>
<path id="path22_fill" d="M 124.497 0C 126.376 0 128.137 0.392129 129.78 1.17639C 131.502 1.88222 132.951 2.86255 134.125 4.11736C 135.377 5.29375 136.355 6.74463 137.06 8.47C 137.843 10.117 138.234 11.8815 138.234 13.7638L 138.234 68.5835C 138.234 70.4657 137.843 72.2695 137.06 73.9949C 136.355 75.6419 135.377 77.0927 134.125 78.3475C 132.951 79.6024 131.502 80.5827 129.78 81.2885C 128.137 81.9944 126.376 82.3473 124.497 82.3473L 82.9341 82.3473C 81.0556 82.3473 79.2553 81.9944 77.5333 81.2885C 75.8895 80.5827 74.4415 79.6024 73.1891 78.3475C 71.9368 77.0927 70.9584 75.6419 70.2539 73.9949C 69.5494 72.2695 69.1972 70.4657 69.1972 68.5835L 69.1972 13.7638C 69.1972 11.8815 69.5494 10.117 70.2539 8.47C 70.9584 6.74463 71.9368 5.29375 73.1891 4.11736C 74.4415 2.86255 75.8895 1.88222 77.5333 1.17639C 79.2553 0.392129 81.0556 0 82.9341 0L 124.497 0ZM 117.452 19.9986L 89.8613 19.9986L 89.8613 62.3486L 117.452 62.3486L 117.452 19.9986Z"/>
<path id="path23_fill" d="M 198.367 32.8213C 200.245 32.8213 202.006 33.1742 203.65 33.88C 205.372 34.5859 206.82 35.5662 207.994 36.821C 209.247 38.0758 210.225 39.5267 210.93 41.1736C 211.712 42.8206 212.104 44.5852 212.104 46.4674L 212.104 68.5835C 212.104 70.4657 211.712 72.2695 210.93 73.9949C 210.225 75.6419 209.247 77.0927 207.994 78.3475C 206.82 79.6024 205.372 80.5827 203.65 81.2885C 202.006 81.9944 200.245 82.3473 198.367 82.3473L 151.52 82.3473C 150.033 82.3473 149.29 81.6022 149.29 80.1121L 149.29 65.8778C 149.29 65.2504 149.485 64.7406 149.877 64.3485C 150.346 63.878 150.894 63.6427 151.52 63.6427L 191.44 63.6427C 192.066 63.6427 192.575 63.4466 192.966 63.0545C 193.436 62.6624 193.67 62.1526 193.67 61.5252L 193.67 51.7611C 193.67 51.1337 193.436 50.624 192.966 50.2318C 192.575 49.7613 192.066 49.526 191.44 49.526L 163.027 49.526C 161.148 49.526 159.348 49.1731 157.626 48.4673C 155.982 47.7614 154.534 46.7811 153.282 45.5263C 152.029 44.2715 151.051 42.8206 150.346 41.1736C 149.642 39.5267 149.29 37.7621 149.29 35.8799L 149.29 13.7638C 149.29 11.8815 149.642 10.117 150.346 8.47C 151.051 6.74463 152.029 5.29375 153.282 4.11736C 154.534 2.86255 155.982 1.88222 157.626 1.17639C 159.348 0.392129 161.148 0 163.027 0L 207.29 0C 208.777 0 209.521 0.745046 209.521 2.23514L 209.521 16.7047C 209.521 17.3321 209.286 17.8419 208.816 18.234C 208.425 18.6262 207.916 18.8222 207.29 18.8222L 169.836 18.8222C 169.21 18.8222 168.701 19.0575 168.31 19.5281C 167.919 19.9202 167.723 20.43 167.723 21.0574L 167.723 30.5861C 167.723 31.2135 167.919 31.7625 168.31 32.2331C 168.701 32.6252 169.21 32.8213 169.836 32.8213L 198.367 32.8213Z"/>
<path id="path24_fill" d="M 243.522 80.1121C 243.522 81.6022 242.778 82.3473 241.291 82.3473L 225.088 82.3473C 223.601 82.3473 222.858 81.6022 222.858 80.1121L 222.858 2.23514C 222.858 0.745046 223.601 0 225.088 0L 241.291 0C 242.778 0 243.522 0.745046 243.522 2.23514L 243.522 80.1121Z"/>
<path id="path25_fill" d="M 313.029 17.7635C 313.029 18.3909 312.794 18.9399 312.324 19.4104C 311.933 19.8026 311.424 19.9986 310.798 19.9986L 294.126 19.9986C 293.5 19.9986 292.952 20.1947 292.482 20.5868C 292.091 20.979 291.895 21.4887 291.895 22.1161L 291.895 80.1121C 291.895 80.7395 291.7 81.2885 291.308 81.7591C 290.917 82.1512 290.408 82.3473 289.782 82.3473L 273.462 82.3473C 272.836 82.3473 272.288 82.1512 271.818 81.7591C 271.427 81.2885 271.231 80.7395 271.231 80.1121L 271.231 22.1161C 271.231 21.4887 271.035 20.979 270.644 20.5868C 270.253 20.1947 269.744 19.9986 269.118 19.9986L 252.446 19.9986C 251.82 19.9986 251.272 19.8026 250.802 19.4104C 250.411 18.9399 250.215 18.3909 250.215 17.7635L 250.215 2.23514C 250.215 0.745046 250.958 0 252.446 0L 269.118 0L 273.462 0L 289.782 0L 294.126 0L 310.798 0C 311.424 0 311.933 0.235278 312.324 0.705832C 312.794 1.09796 313.029 1.60773 313.029 2.23514L 313.029 17.7635Z"/>
<path id="path26_fill" d="M 340.765 80.1121C 340.765 81.6022 340.021 82.3473 338.534 82.3473L 322.332 82.3473C 320.845 82.3473 320.101 81.6022 320.101 80.1121L 320.101 2.23514C 320.101 0.745046 320.845 0 322.332 0L 338.534 0C 340.021 0 340.765 0.745046 340.765 2.23514L 340.765 80.1121Z"/>
<path id="path27_fill" d="M 407.22 0C 409.098 0 410.859 0.392129 412.503 1.17639C 414.225 1.88222 415.673 2.86255 416.847 4.11736C 418.1 5.29375 419.078 6.74463 419.782 8.47C 420.565 10.117 420.956 11.8815 420.956 13.7638L 420.956 68.5835C 420.956 70.4657 420.565 72.2695 419.782 73.9949C 419.078 75.6419 418.1 77.0927 416.847 78.3475C 415.673 79.6024 414.225 80.5827 412.503 81.2885C 410.859 81.9944 409.098 82.3473 407.22 82.3473L 365.657 82.3473C 363.778 82.3473 361.978 81.9944 360.256 81.2885C 358.612 80.5827 357.164 79.6024 355.912 78.3475C 354.659 77.0927 353.681 75.6419 352.976 73.9949C 352.272 72.2695 351.92 70.4657 351.92 68.5835L 351.92 13.7638C 351.92 11.8815 352.272 10.117 352.976 8.47C 353.681 6.74463 354.659 5.29375 355.912 4.11736C 357.164 2.86255 358.612 1.88222 360.256 1.17639C 361.978 0.392129 363.778 0 365.657 0L 407.22 0ZM 400.175 19.9986L 372.584 19.9986L 372.584 62.3486L 400.175 62.3486L 400.175 19.9986Z"/>
<path id="path28_fill" d="M 487.664 0C 489.543 0 491.304 0.392129 492.948 1.17639C 494.67 1.88222 496.118 2.86255 497.292 4.11736C 498.544 5.29375 499.523 6.74463 500.227 8.47C 501.01 10.117 501.401 11.8815 501.401 13.7638L 501.401 80.1121C 501.401 80.7395 501.166 81.2885 500.697 81.7591C 500.305 82.1512 499.797 82.3473 499.17 82.3473L 482.851 82.3473C 482.224 82.3473 481.716 82.1512 481.324 81.7591C 480.933 81.2885 480.737 80.7395 480.737 80.1121L 480.737 22.1161C 480.737 21.4887 480.502 20.979 480.033 20.5868C 479.641 20.1947 479.133 19.9986 478.506 19.9986L 455.259 19.9986C 454.633 19.9986 454.085 20.1947 453.616 20.5868C 453.224 20.979 453.029 21.4887 453.029 22.1161L 453.029 80.1121C 453.029 81.6022 452.285 82.3473 450.798 82.3473L 434.595 82.3473C 433.108 82.3473 432.365 81.6022 432.365 80.1121L 432.365 2.23514C 432.365 0.745046 433.108 0 434.595 0L 487.664 0Z"/>
<path id="path29_fill" d="M 600.84 0C 602.718 0 604.479 0.392129 606.123 1.17639C 607.845 1.88222 609.293 2.86255 610.467 4.11736C 611.719 5.29375 612.698 6.74463 613.402 8.47C 614.185 10.117 614.576 11.8815 614.576 13.7638L 614.576 68.5835C 614.576 70.4657 614.185 72.2695 613.402 73.9949C 612.698 75.6419 611.719 77.0927 610.467 78.3475C 609.293 79.6024 607.845 80.5827 606.123 81.2885C 604.479 81.9944 602.718 82.3473 600.84 82.3473L 559.277 82.3473C 557.398 82.3473 555.598 81.9944 553.876 81.2885C 552.232 80.5827 550.784 79.6024 549.532 78.3475C 548.279 77.0927 547.301 75.6419 546.596 73.9949C 545.892 72.2695 545.54 70.4657 545.54 68.5835L 545.54 13.7638C 545.54 11.8815 545.892 10.117 546.596 8.47C 547.301 6.74463 548.279 5.29375 549.532 4.11736C 550.784 2.86255 552.232 1.88222 553.876 1.17639C 555.598 0.392129 557.398 0 559.277 0L 600.84 0ZM 593.795 19.9986L 566.204 19.9986L 566.204 62.3486L 593.795 62.3486L 593.795 19.9986Z"/>
<path id="path30_fill" d="M 681.284 0C 683.163 0 684.924 0.392129 686.568 1.17639C 688.29 1.88222 689.738 2.86255 690.912 4.11736C 692.164 5.29375 693.143 6.74463 693.847 8.47C 694.63 10.117 695.021 11.8815 695.021 13.7638L 695.021 80.1121C 695.021 80.7395 694.786 81.2885 694.317 81.7591C 693.925 82.1512 693.417 82.3473 692.79 82.3473L 676.47 82.3473C 675.844 82.3473 675.336 82.1512 674.944 81.7591C 674.553 81.2885 674.357 80.7395 674.357 80.1121L 674.357 22.1161C 674.357 21.4887 674.122 20.979 673.653 20.5868C 673.261 20.1947 672.752 19.9986 672.126 19.9986L 648.879 19.9986C 648.253 19.9986 647.705 20.1947 647.235 20.5868C 646.844 20.979 646.648 21.4887 646.648 22.1161L 646.648 80.1121C 646.648 81.6022 645.905 82.3473 644.418 82.3473L 628.215 82.3473C 626.728 82.3473 625.984 81.6022 625.984 80.1121L 625.984 2.23514C 625.984 0.745046 626.728 0 628.215 0L 681.284 0Z"/>
<path id="path31_fill" d="M 727.437 19.1751C 727.046 19.1751 726.85 19.3712 726.85 19.7633L 726.85 32.586C 726.85 32.8997 727.046 33.0565 727.437 33.0565L 760.899 33.0565C 761.525 33.0565 762.034 33.2918 762.425 33.7624C 762.895 34.1545 763.13 34.6643 763.13 35.2917L 763.13 47.0556C 763.13 48.5457 762.386 49.2907 760.899 49.2907L 727.437 49.2907C 727.046 49.2907 726.85 49.4868 726.85 49.8789L 726.85 62.5839C 726.85 62.9761 727.046 63.1721 727.437 63.1721L 766.769 63.1721C 767.395 63.1721 767.904 63.4074 768.296 63.878C 768.765 64.2701 769 64.7799 769 65.4073L 769 80.1121C 769 80.7395 768.765 81.2885 768.296 81.7591C 767.904 82.1512 767.395 82.3473 766.769 82.3473L 719.923 82.3473C 718.044 82.3473 716.244 81.9944 714.522 81.2885C 712.878 80.5827 711.43 79.6024 710.178 78.3475C 708.926 77.0927 707.947 75.6419 707.243 73.9949C 706.538 72.2695 706.186 70.4657 706.186 68.5835L 706.186 13.7638C 706.186 11.8815 706.538 10.117 707.243 8.47C 707.947 6.74463 708.926 5.29375 710.178 4.11736C 711.43 2.86255 712.878 1.88222 714.522 1.17639C 716.244 0.392129 718.044 0 719.923 0L 766.769 0C 767.395 0 767.904 0.235278 768.296 0.705832C 768.765 1.09796 769 1.60773 769 2.23514L 769 17.0576C 769 17.6851 768.765 18.1948 768.296 18.587C 767.904 18.9791 767.395 19.1751 766.769 19.1751L 727.437 19.1751Z"/>
</defs>
</svg>
