<svg xmlns="http://www.w3.org/2000/svg" viewBox="0 0 403 415"><defs><style>.cls-1{fill:#008084;}.cls-2{fill:#8b5e3c;}.cls-3{fill:#a97c50;}.cls-4{fill:#c4b287;}.cls-5{fill:#c49a6c;}.cls-6{fill:#3e4981;}</style></defs><title>Artboard 1</title><g id="Layer_1" data-name="Layer 1"><path class="cls-1" d="M264.67,202.31l35,0c0-49.33-36-82.67-59.33-90-6-47.33-12.67-100-12.67-100V123S281,141,281,189H262.9Z"/><path class="cls-1" d="M241.68,209.62h58c0,49.33-36,82.67-59.33,90-6,47.33-12.67,100-12.67,100V289S281,271,281,223H241.68Z"/><path class="cls-1" d="M138.29,202.24s-23,0-35,0c0-49.33,36-82.67,59.33-90,6-47.33,12.67-100,12.67-100V123S122,141,122,189h18.63Z"/><path class="cls-1" d="M161.29,209.62h-58c0,49.33,36,82.67,59.33,90,6,47.33,12.67,100,12.67,100V289S122,271,122,223h39.33Z"/><path class="cls-1" d="M263.86,209.62c-.06-.12-7.06-14-28.42-14-19.89,0-30.76,6.7-32.56,7.91a2,2,0,0,1-1.31.58h-.27a2,2,0,0,1-1.31-.58c-1.79-1.21-12.66-7.91-32.56-7.91-21.2,0-28.24,13.66-28.41,14,6.66,41.75,53.74,84.58,62.44,84.58s55.81-42.85,62.45-84.61Z"/><path class="cls-1" d="M201.48,160.79c14.52,0,32.08-6,39.24-8.72-14.79-12.65-32.23-19-39.24-19s-24.45,6.36-39.24,19C169.4,154.77,187,160.79,201.48,160.79Z"/><path class="cls-1" d="M244.05,155.07c-5.63,2.24-25.67,9.71-42.57,9.71s-36.95-7.47-42.57-9.71C147.4,166,138.25,181,138.25,200q0,1.1,0,2.19c4-4.24,13-10.62,29.16-10.62,19.22,0,30.44,5.85,34,8.07,3.57-2.22,14.78-8.07,34-8.07,16.23,0,25.24,6.42,29.2,10.67l0,0c0-.76,0-1.51,0-2.26C264.72,181,255.56,166,244.05,155.07Z"/><path class="cls-1" d="M263.86,209.62c-.06-.12-7.06-14-28.42-14-19.89,0-30.76,6.7-32.56,7.91a2,2,0,0,1-1.31.58h-.27a2,2,0,0,1-1.31-.58c-1.79-1.21-12.66-7.91-32.56-7.91-21.2,0-28.24,13.66-28.41,14,6.66,41.75,53.74,84.58,62.44,84.58s55.81-42.85,62.45-84.61Z"/><path class="cls-1" d="M201.48,160.79c14.52,0,32.08-6,39.24-8.72-14.79-12.65-32.23-19-39.24-19s-24.45,6.36-39.24,19C169.4,154.77,187,160.79,201.48,160.79Z"/><path class="cls-1" d="M244.05,155.07c-5.63,2.24-25.67,9.71-42.57,9.71s-36.95-7.47-42.57-9.71C147.4,166,138.25,181,138.25,200q0,1.1,0,2.19c4-4.24,13-10.62,29.16-10.62,19.22,0,30.44,5.85,34,8.07,3.57-2.22,14.78-8.07,34-8.07,16.23,0,25.24,6.42,29.2,10.67l0,0c0-.76,0-1.51,0-2.26C264.72,181,255.56,166,244.05,155.07Z"/></g><g id="Layer_2" data-name="Layer 2"><path class="cls-2" d="M321.72,262.46a3.62,3.62,0,0,0,2.17,3.08c2.08.83,6.75,2.67,8.42,3.25.5-1.08.83-1.75,1.17-1.92a6,6,0,0,1,.5-2.42s.5,4.33,1.5,4.67,9.92,1.42,9.92,1.42l.58-1.42,4.08,1.42s11.58.25,16.42-.92l-.08-.75,3-1.25.67,1.5a90.64,90.64,0,0,0,9-2.25c3.83-1.25,4.62-1.58,6.23-2.83s2.22-2.13,2.22-4.73-7.87-12-7.87-12L328.47,246Z"/><path class="cls-3" d="M377.38,260.54s1.5,3-6.58,4.08c-.25-2.08-.58-4.08-.58-4.08a11.32,11.32,0,0,1-2,4.08c-1.58,1-4.92,1.42-6.92,1.58s-6.33,0-6.33,0l-.75-.83-1,.91a67.52,67.52,0,0,1-8.33,0c-1.17-1.49-1.67-7.07-1.33-8.82-.92,2.75-1.58,6.67-3.33,7.92-2.42-.42-5.17-1.33-6.75-2.92.58-3.58,1.33-8.58,1.33-8.58l13.5-6.58,26.5,5.33Z"/><path class="cls-4" d="M377.38,258.54l-1.67-10.83-51-1.5s-2.58,10.83-3,14.25a10.1,10.1,0,0,1,6.25-5.25,58.45,58.45,0,0,0,1.33-6.08l1.25,5.17s10-2.08,16.5-2.17c.17-.92.33-3,.33-3a34.13,34.13,0,0,1,4.08,2.83c2.25,0,10.83,0,13.75.83.5-.92.92-1,.92-1L367.3,253a40.18,40.18,0,0,1,6.42,1.58C375.3,255.29,377.38,258.54,377.38,258.54Z"/><path class="cls-2" d="M87.81,149.15a3.62,3.62,0,0,0-2.17-3.08c-2.08-.83-6.75-2.67-8.42-3.25-.5,1.08-.83,1.75-1.17,1.92a6,6,0,0,1-.5,2.42s-.5-4.33-1.5-4.67-9.92-1.42-9.92-1.42l-.58,1.42-4.08-1.42s-11.58-.25-16.42.92l.08.75-3,1.25-.67-1.5a90.71,90.71,0,0,0-9,2.25c-3.83,1.25-4.62,1.58-6.23,2.83S22,149.7,22,152.3s7.87,12,7.87,12l51.17,1.25Z"/><path class="cls-3" d="M32.15,151.07s-1.5-3,6.58-4.08c.25,2.08.58,4.08.58,4.08a11.35,11.35,0,0,1,2-4.08c1.58-1,4.92-1.42,6.92-1.58s6.33,0,6.33,0l.75.83,1-.91a67.46,67.46,0,0,1,8.33,0c1.17,1.49,1.67,7.07,1.33,8.82.92-2.75,1.58-6.67,3.33-7.92,2.42.42,5.17,1.33,6.75,2.92-.58,3.58-1.33,8.58-1.33,8.58l-13.5,6.58L34.73,159Z"/><path class="cls-4" d="M32.15,151.07l1.67,10.83,51,1.5s2.58-10.83,3-14.25a10.1,10.1,0,0,1-6.25,5.25,58.79,58.79,0,0,0-1.33,6.08L79,155.32s-10,2.08-16.5,2.17c-.17.92-.33,3-.33,3a34.15,34.15,0,0,1-4.08-2.83c-2.25,0-10.83,0-13.75-.83-.5.92-.92,1-.92,1l-1.17-1.17a40.22,40.22,0,0,1-6.42-1.58C34.23,154.32,32.15,151.07,32.15,151.07Z"/><path class="cls-5" d="M20,255c11.25,2.38,112.67,6.33,178.67,2.33,59.33-3.6,122.59-15.81,172.54-7.1,5.61,1,12,1.38,16.31,9.39,0-44.67-4.18-98.67-4.18-98.67s-50-6.29-74-6.29-85,3-108,4.68c-18,1.28-97.71,4.53-147.83,2.77-4.85-.17-9.42-.39-13.63-.66-8-.51-14.59-2.44-17.8-9.14C22,183.07,8.73,252.61,20,255Z"/></g><g id="Layer_3" data-name="Layer 3"><path class="cls-6" d="M72.73,193.68l-1.09,1.8c-2.18.34-3.27.5-5.45.82l-1.31-1.49v-2l-3.27-.74.22,3.39c-3.18-.2-4.77-.32-8-.57l.33-3.24L53.88,187l.33-3.35c-2.48-.33-3.73-.5-6.21-.86l-3.16,0L43,184.89s-.33,3.45-.33,4.32a20.66,20.66,0,0,1-.76,3.41l.55,3.54a6.11,6.11,0,0,0-.33,2.58c.26.87,1.09,3.05,1.09,3.05s8.5.46,9.26.53l4,.32s3.83-.84,4.58-1.1,3.06,1.57,4.58.82,2.75-.08,4.14.54a11.09,11.09,0,0,1,2.62,1.86l.33,3A32.08,32.08,0,0,1,74,212.37a6.54,6.54,0,0,0,.54,2.09s.83,7.91,1.09,9.09a13.23,13.23,0,0,1-1.31,6.05C73.56,231,75.68,234,75.68,234L74,239.5l-2.18,3.39s-2.62,2.49-3.49,2.45-2.72.4-4.58.29a36.28,36.28,0,0,0-5.88.48,51.47,51.47,0,0,1-6,.19c-.76-.06-4.82-1-5.88-.53s-4.47-.78-4.47-.78-3.27.19-4.58-.51-5.37-.72-6.43-1.12a13.74,13.74,0,0,0-3.27-.44l-.22-2.65,2.4-.22-1.42-2.48L26.75,236l-1.85-.7.22-4L26,230l1.74-.85a4.32,4.32,0,0,1,2.07.06c.85.4,2-.4,2-.4l.54-.69L29,227.37a27.63,27.63,0,0,0,.87-3.92c0-.87,3.49,1,3.49,1s2.72.66,3.49.75A41.69,41.69,0,0,1,41,226.42c1.27.39,2.4-.18,3.27-.1a29.62,29.62,0,0,0,5,.47c1.26-.14,4.79.84,5.88.92s4.58-.21,4.58-.21.29-4.84.55-5.63a18.37,18.37,0,0,0,.33-3.14l-1.09-3-2-1c-2.35-.3-3.53-.46-5.88-.79a43.89,43.89,0,0,0-5.67.69,6.54,6.54,0,0,1-4.58-.79c-1.31-.68-5.34.28-6.76.1s-2.42-4.39-4-5.19a3.23,3.23,0,0,1-2.18-2.91,27.76,27.76,0,0,1-.55-3.78c0-.87.33-4.64.33-4.64a19.93,19.93,0,0,1-.87-3.93,9.22,9.22,0,0,1,1.42-3.84c.54-.8-.33-3.53-.33-4.4a46.84,46.84,0,0,1,.33-6.06c.25-.78,2.14-4.13,2.4-5.24s2.94-3.12,3.81-3a30.31,30.31,0,0,1,3.7,1.3l3.49-1s3.83-.21,4.9.49,4.58.41,4.58.41,6.24-.4,7.52.25,3.33.51,4.36.83,4-.64,4-.64,3.16,1.9,3.71,2.8a42.3,42.3,0,0,1,2.18,3.91c.54,1.22-.76,3.45-.76,3.45v11Z"/><path class="cls-6" d="M135.83,188.32v4.14l.22,3.91v4.36C134,202,133.76,202,133.54,202v5.88l-3.92-.18c-.11,1.09-.11,2.07-.11,2.07v2.83s-2.4,1.28-3.05,1.09-1.85-.6-1.85-1.14a3.78,3.78,0,0,1,.11-1c-.22,0-.44,0-4.58-.09l-.87-2.48-4.79.54.33-4.36s.64-4.05.33-5.13a25.89,25.89,0,0,1-.33-4.9c0-.87,0-4.68-.55-5.87-.33-.54-.12-2.79-.44-3.37a14.65,14.65,0,0,0-1.85-1.06.37.37,0,0,0-.22-.11c-3.14-.12-4.71-.19-7.85-.35l-2.18,3.17-1.53,3.82,1.85,5.44s-.65,3.38-.65,4.25-.29,3.5.33,4.58.65,6.86.65,8.06a50.34,50.34,0,0,1-.65,6.87c-1.53,5.78,2.29,6.65,6.21,7.26,1.31.31,7.19.54,7.19.54,3.4-.55,5.1-.83,8.5-1.41,2.83-.08,4.25-.13,7.08-.24l.65,3.14-3.16,1.31.33,1.73,3.16-.44a11.7,11.7,0,0,1,.33,3.36,22,22,0,0,1,2.29-.2c1,0,.33,1.95.33,2.82s-1.85.62-1.85.62l-4.69.17-4,1,1,1.71,4,1.06.87,1.93-6.43,1.3-4.36.44-6.21,2.2s-8.08-.45-8.93.1-8.61-1.2-8.61-1.2-3-2.67-2.72-3.51-5-2.36-4.69-9.22l-.44-4.26s-.11-2.18-.11-4.36a25.26,25.26,0,0,1,.22-3.7c.33-1.08-1.85-6.36-2.18-7.23s2.2-6.29,2.51-7.36-1.24-8.95-2.29-9.63-.53-5.9-.22-7.3A64.05,64.05,0,0,0,87,184.32c0-1.09.76-6.5,1.63-7.05a10.52,10.52,0,0,1,4-1.14c.87,0,4.9-2.58,4.9-2.58s7.36-1.39,8.28-1.66a16.37,16.37,0,0,1,5,.81H111l5-1.51,4.47,1.64,4.36-.89,2.73.13,3.6,1.62,4,2.57,1.53,3-.65,4.49Z"/><path class="cls-6" d="M196.29,233.65a5.81,5.81,0,0,1-1.63.44c.22,1.29.33,2.26.33,2.26l-5.56,1.05c.22.75,1.73,2.2,1.2,2.42-.71.29-3.22,1.92-3.81,2a4.86,4.86,0,0,1-2.51-.59c-.65-.39-.22-1.73-.65-2.35s.23-1.77-.22-3.58a34.05,34.05,0,0,1-.44-4.55c-.22-1.73,0-5.88-.65-6.6l-.76.05s-3.92-1.91-4.68-1.86-3.49,2.63-3.49,2.63-3.5-.83-5-.54c-1,.18-2.72,1.15-4,1.56,0,.22-.11.33-.11.44v4.25l-1.09,4.1v3.6l-.65,2.11-3.59,2.61s-1.53.42-1.74-.22.65-4.72-.22-4.45a12.87,12.87,0,0,1-2.72.26l-.65,3.2-.87,3s-5.6,1.56-6.43,1.65a2.13,2.13,0,0,1-2.29-1c-.44-.85,0-6.43,0-6.43s-.49-.9-1.09-.82-2-.67-2-1.32a49.19,49.19,0,0,1,1.31-4.86l1.31-3s1.31-2.79,1.09-3.65.22-4.48.22-5.57,2.07-4.24,1.85-4.89a54.67,54.67,0,0,1,0-6s1.32-6.18,1.53-7.05,1.51-1.72,1.31-2.57-.88-6.62-.65-7.37,2.29-4.48,2.29-4.48.65-3.63.65-4.29v-4.47l1.53-4.12,6-.67,4.47-1.14L167,172l3.27-.32,2.07,1.28s3.15,1,3.38.21,1.74-3.5,1.74-3.5l2.94-.09,2.4-.17,3.7-.37,2.72,1.22s1.05,3.75.44,4.87,0,4.69,0,4.69,1.94,3.57,1.53,4.9,1.19,5,1,6.36.87,5.06.87,6.37,1.74,6.3,1.74,7.17,1.29,4.93,1.09,5.59a43.14,43.14,0,0,0,0,5.45c0,.87,1.2,6.23,1.2,6.23a18.6,18.6,0,0,1,.22,3.8c-.22.67.65,4.86.65,4.86ZM179.73,211c-.22-3-.81-9.77-1-10.17-.24-.57-.44-3.78-.87-4.63s.22-3.61-.22-4.23a24.48,24.48,0,0,1-1.31-3.62l-2.94.63-2,.24-.65,2.66-1,3.44-.65,4.62-2,4.92a17.13,17.13,0,0,1,0,3.49c-.2.77-.65,2.44-.87,3.54l2.4-.37,4.47.36A40.76,40.76,0,0,1,179.73,211Z"/><path class="cls-6" d="M253.7,183.51v4.58l-.22,4.59V196s-1.23,2-1.74,3-1.45,3.18-2.94,3.54-1.09,1.48-2.83,2a14.36,14.36,0,0,0-2.61,1.9l-3.16,1.07A27.45,27.45,0,0,1,246.4,209s3.35.41,3.6,1.1,1.85.66,2.4,1.39a16.74,16.74,0,0,1,1.09,2l.44.63,1.74,2.09s-1.23,3.72-1,4.41a23.28,23.28,0,0,1,.33,6.08,39.18,39.18,0,0,0-1,5.06v8.17s-2.73,1.1-3.16.94-.56-2.92-.76-3.55-.5-4.14-1.2-3.85-2.83,1.36-2.83,1.36l-.54,2-1,1.48-2.4,2.65-7.73.16-3.38-.65,1.53-7.84v-5.88c0-.65-.76-6.16-.76-6.16l-.76-2.13a9.22,9.22,0,0,0-2.61-1c-.76.05-2.76,1.4-3.38,1.21a6.55,6.55,0,0,0-2.4.17l-.76,4.41s-.67,4.67-.44,5.26a46.11,46.11,0,0,1,.65,4.86l-.44,3.84v4.36s-1.26,1.1-2,.9a1.58,1.58,0,0,1-1-.91l-.22-5.32s-1-1.35-1.74-2.17l-.11.12-3.16,5.67-3.81-.27-1.09,3.13-1.42.65s-1.63.34-1.63-.43,1.13-4.92.87-5.84-.22-7-.22-7,.48-5.63.22-6.34-.44-7.7-.44-7.7.19-8.47.44-9.18-.46-5.37,0-6.54,2.51-6,1.74-6.88-1-4.72-1-4.72l.33-4.49-2.94-1-.65-2-.76-3.65.87-.5-.65-1.59-2.94-.77,2.18-2.55s3.38.41,4.14.35,5.23-1.36,5.23-1.36l6.75.06,3.16-.44,8.5-1.13s7.87-.28,8.61-.56,4.57.92,4.57.92l3.81,1.3s2.25-.65,2.72.28,1.85,3.49,1.85,4.47,1.16,2.88.76,3.55S253.7,182.74,253.7,183.51Zm-26.14,17.85a16.8,16.8,0,0,1,3-.42l2.94-2.16.87-2.45,1-3.77.44-4.5-.65-3.12-1.63-2.51-2.51-.38-2.51,1.15-3.92-1.15-.87,3.44s-.54,3.2-.76,4,.76,4.85.76,4.85l-.33,3.4.33,4.66S227,201.59,227.56,201.36Z"/><path class="cls-6" d="M316.79,228.38a5.51,5.51,0,0,1-1.64.3c.22,1.31.33,2.29.33,2.29l-5.56.59c.22.76,1.73,2.34,1.2,2.52-.71.24-3.22,1.67-3.81,1.72a5.17,5.17,0,0,1-2.51-.77c-.65-.44-.22-1.74-.65-2.4s.23-1.76-.22-3.6a34.69,34.69,0,0,1-.44-4.58c-.22-1.74,0-5.88-.65-6.65h-.76s-3.92-2.15-4.69-2.15-3.49,2.44-3.49,2.44-3.51-1-5-.78c-1,.14-2.72,1-4,1.4,0,.22-.11.33-.11.44v4.25l-1.09,4.06v3.6l-.65,2.09-3.6,2.5s-1.53.38-1.74-.27.65-4.71-.22-4.46a13,13,0,0,1-2.72.2l-.65,3.18-.87,3s-5.6,1.48-6.43,1.57a2.15,2.15,0,0,1-2.29-1c-.44-.85,0-6.43,0-6.43s-.49-.9-1.09-.82-2-.67-2-1.32a49.22,49.22,0,0,1,1.31-4.86l1.31-3s1.31-2.78,1.09-3.65.22-4.48.22-5.57,2.07-4.23,1.85-4.88a54.65,54.65,0,0,1,0-6s1.32-6.17,1.53-7,1.51-1.71,1.31-2.56-.88-6.63-.65-7.38,2.29-4.45,2.29-4.45.65-3.62.65-4.27v-4.47l1.53-4.09,6-.53,4.47-1,3.16-.73,3.27-.18,2.07,1.38s3.15,1.13,3.38.39,1.74-3.4,1.74-3.4l2.94.09h2.4L307,163l2.72,1.43s1.05,3.83.44,4.91,0,4.69,0,4.69,1.94,3.73,1.53,5,1.19,5.14,1,6.44.87,5.13.87,6.44,1.74,6.45,1.74,7.32,1.29,5,1.09,5.68a43.1,43.1,0,0,0,0,5.45c0,.87,1.2,6.34,1.2,6.34a18.91,18.91,0,0,1,.22,3.82c-.22.65.65,4.92.65,4.92Zm-16.56-24c-.22-3-.81-9.82-1-10.24-.24-.59-.44-3.81-.87-4.68s.22-3.6-.22-4.25a25.77,25.77,0,0,1-1.31-3.69l-2.94.47-2,.14-.65,2.63-1,3.4-.65,4.59-2,4.84a17.16,17.16,0,0,1,0,3.49c-.2.76-.65,2.41-.87,3.51l2.4-.27,4.47.58A37.52,37.52,0,0,1,300.23,204.43Z"/><path class="cls-6" d="M379.34,229a6.62,6.62,0,0,1-1.31,4.39,9.56,9.56,0,0,1-2.07,2c-.65.46-2.72,1.16-3.16,1.65s-3.27.25-3.81.73-2.72,1.74-3.49,2.21-3.38-.47-4-.54-7.63,1.35-8.28,1.08-5-.73-5.67-1a58,58,0,0,0-6.21-.42c-2.27-.36-3.4-.53-5.67-.86l-3.92-2.14-3.38-.14-1.64-2.56-.44-2.63.87-2.91,1.2-3s-.67-2.88-.44-3.5,1.31-3,1.31-3,.22-4.13.22-4.89-.65-1.77-.44-2.31.22-4.57.44-5.32-1.09-6.58-1.09-7.12a23.74,23.74,0,0,1,.87-3.34l-1.63-4.64,1-3.78-.44-5-.44-1.87-.54-1.44-2.62-.85v-3.27l1.31.26,2.94-.44,1.31-1.47-2.72-.87-2.83-.09-3.6-1.08-.22-2.95,4.47-.2,5.34-.35,4.9-.43s4.79-.83,5.45-.79,4.9.64,6,.94,6.54-.25,7.19-.19,6.43.38,7,.44a36.79,36.79,0,0,1,4,1.19c.63.24,4.47,2.26,5.12,2.34a20.32,20.32,0,0,1,4.9,2.8,9.78,9.78,0,0,1,1.31,3.55c.22,1-.44,2.24-.22,3.46s1.07,3.67,1.42,4.77-.76,2.4-.76,3.16a20.37,20.37,0,0,0,1.2,3.65,22.7,22.7,0,0,0-2.07,2.55c-.22.52-3.16,2.09-3.16,2.09l-3.05.93c-2.27.6-3.4.9-5.67,1.53l2.51,1.37a55,55,0,0,1,5.56,2.3,27.52,27.52,0,0,1,2.29,1.82,12.12,12.12,0,0,1,2.4,2.83,8.08,8.08,0,0,1,.54,3.13c0,.76,1.31,4.54,1.53,6.1s.87,2.63.87,4.7-.87,2.16-1.31,3.63S379.12,227.58,379.34,229Zm-19.72-13.6c.22-.41-.44-4.4-.44-4.4s-.11-3.28-.65-3.66a16.88,16.88,0,0,0-2.94-1.58,20.41,20.41,0,0,0-4.36-.15l-2.51-.52-2.72-.2a22.48,22.48,0,0,0-2.62.15l-.65.83,1.2,3.24-.65,8.57,2.61.39a32.39,32.39,0,0,1,4.14,0c.63.22,2.94.89,3.7.63a23.52,23.52,0,0,1,3.27-.47s1.31-.42,1.63-.94Zm.87-28a32.25,32.25,0,0,1,.65-3.2l-.44-2.88-2.18-1.19L355.15,179l-2.72,1.18-4.58-.68-1.2.13a13.35,13.35,0,0,0,0,2.51,24.53,24.53,0,0,1,0,3.27v5.23l2.29-.05a27.56,27.56,0,0,0,4,.32,28.78,28.78,0,0,1,4.25-.6c.76.07,2.57-.81,3.05-.9S360.49,187.94,360.49,187.39Z"/></g></svg>