<svg width="2400" height="2400" viewBox="0 0 2400 2400" version="1.1" xmlns="http://www.w3.org/2000/svg" xmlns:xlink="http://www.w3.org/1999/xlink">
<title>Starfield</title>
<desc>Created using Figma</desc>
<g id="Canvas" transform="translate(-16913 -2303)">
<clipPath id="clip-0" clip-rule="evenodd">
<path d="M 16913 2303L 19313 2303L 19313 4703L 16913 4703L 16913 2303Z" fill="#FFFFFF"/>
</clipPath>
<g id="Starfield" clip-path="url(#clip-0)">
<path d="M 16913 2303L 19313 2303L 19313 4703L 16913 4703L 16913 2303Z" fill="#FFFFFF"/>
<g id="Rectangle">
<use xlink:href="#path0_fill" transform="translate(16913 2303)" fill="#19253D"/>
</g>
<g id="Stars" filter="url(#filter0_d)">
<g id="Star">
<use xlink:href="#path1_fill" transform="matrix(1 -5.55168e-17 5.55055e-17 1 17266.4 2429.92)" fill="#FFFAC9"/>
</g>
<g id="Star">
<use xlink:href="#path2_fill" transform="matrix(1 -5.55168e-17 5.55055e-17 1 17389.4 2320)" fill="#FFFFFF"/>
</g>
<g id="Star">
<use xlink:href="#path2_fill" transform="matrix(1 -5.55168e-17 5.55055e-17 1 17540.4 2608.66)" fill="#FFFFFF"/>
</g>
<g id="Star">
<use xlink:href="#path2_fill" transform="matrix(1 -5.55168e-17 5.55055e-17 1 17838.8 2628.75)" fill="#FFFFFF"/>
</g>
<g id="Star">
<use xlink:href="#path2_fill" transform="matrix(1 -5.55168e-17 5.55055e-17 1 16930 2357.45)" fill="#FFFFFF"/>
</g>
<g id="Star">
<use xlink:href="#path1_fill" transform="matrix(1 -5.55168e-17 5.55055e-17 1 17424.1 2670.77)" fill="#FFFAC9"/>
</g>
<g id="Star">
<use xlink:href="#path1_fill" transform="matrix(1 -5.55168e-17 5.55055e-17 1 17499 2544.71)" fill="#FFFAC9"/>
</g>
<g id="Star">
<use xlink:href="#path1_fill" transform="matrix(1 -5.55168e-17 5.55055e-17 1 17656.1 2721.32)" fill="#FFFAC9"/>
</g>
<g id="Star">
<use xlink:href="#path1_fill" transform="matrix(1 -5.55168e-17 5.55055e-17 1 17931.7 2324.57)" fill="#FFFAC9"/>
</g>
<g id="Star">
<use xlink:href="#path1_fill" transform="matrix(1 -5.55168e-17 5.55055e-17 1 18087.2 2591.6)" fill="#FFFAC9"/>
</g>
<g id="Star">
<use xlink:href="#path3_fill" transform="matrix(1 -5.55168e-17 5.55055e-17 1 17715.5 2580.95)" fill="#75714A"/>
</g>
<g id="Star">
<use xlink:href="#path3_fill" transform="matrix(1 -5.55168e-17 5.55055e-17 1 17871.4 2445.45)" fill="#75714A"/>
</g>
<g id="Star">
<use xlink:href="#path3_fill" transform="matrix(1 -5.55168e-17 5.55055e-17 1 17607.4 2466.46)" fill="#75714A"/>
</g>
<g id="Star">
<use xlink:href="#path3_fill" transform="matrix(1 -5.55168e-17 5.55055e-17 1 17671.4 2324.57)" fill="#75714A"/>
</g>
<g id="Star">
<use xlink:href="#path3_fill" transform="matrix(1 -5.55168e-17 5.55055e-17 1 17962.4 2656.76)" fill="#75714A"/>
</g>
<g id="Star">
<use xlink:href="#path3_fill" transform="matrix(1 -5.55168e-17 5.55055e-17 1 17337.7 2387.29)" fill="#75714A"/>
</g>
<g id="Star">
<use xlink:href="#path3_fill" transform="matrix(1 -5.55168e-17 5.55055e-17 1 17307.2 2596.48)" fill="#75714A"/>
</g>
<g id="Star">
<use xlink:href="#path3_fill" transform="matrix(1 -5.55168e-17 5.55055e-17 1 17044.5 2474.07)" fill="#75714A"/>
</g>
<g id="Star">
<use xlink:href="#path3_fill" transform="matrix(1 -5.55168e-17 5.55055e-17 1 17118.2 2324.57)" fill="#75714A"/>
</g>
<g id="Star">
<use xlink:href="#path3_fill" transform="matrix(1 -5.55168e-17 5.55055e-17 1 17005.8 2632.1)" fill="#75714A"/>
</g>
<g id="Star">
<use xlink:href="#path3_fill" transform="matrix(1 -5.55168e-17 5.55055e-17 1 17203.4 2703.35)" fill="#75714A"/>
</g>
</g>
<g id="Stars" filter="url(#filter1_d)">
<g id="Star">
<use xlink:href="#path1_fill" transform="matrix(-1 5.55168e-17 -5.55055e-17 -1 19055.1 2492.63)" fill="#FFFAC9"/>
</g>
<g id="Star">
<use xlink:href="#path2_fill" transform="matrix(-1 5.55168e-17 -5.55055e-17 -1 18853.6 2752.07)" fill="#FFFFFF"/>
</g>
<g id="Star">
<use xlink:href="#path2_fill" transform="matrix(-1 5.55168e-17 -5.55055e-17 -1 18702.6 2463.41)" fill="#FFFFFF"/>
</g>
<g id="Star">
<use xlink:href="#path2_fill" transform="matrix(-1 5.55168e-17 -5.55055e-17 -1 18404.2 2443.32)" fill="#FFFFFF"/>
</g>
<g id="Star">
<use xlink:href="#path4_fill" transform="matrix(-1 5.55168e-17 -5.55055e-17 -1 19313 2714.62)" fill="#FFFFFF"/>
</g>
<g id="Star">
<use xlink:href="#path5_fill" transform="matrix(-1 5.55168e-17 -5.55055e-17 -1 18818.9 2401.3)" fill="#FFFAC9"/>
</g>
<g id="Star">
<use xlink:href="#path6_fill" transform="matrix(-1 5.55168e-17 -5.55055e-17 -1 18744 2527.36)" fill="#FFFAC9"/>
</g>
<g id="Star">
<use xlink:href="#path5_fill" transform="matrix(-1 5.55168e-17 -5.55055e-17 -1 18586.9 2350.75)" fill="#FFFAC9"/>
</g>
<g id="Star">
<use xlink:href="#path1_fill" transform="matrix(-1 5.55168e-17 -5.55055e-17 -1 18311.3 2747.5)" fill="#FFFAC9"/>
</g>
<g id="Star">
<use xlink:href="#path1_fill" transform="matrix(-1 5.55168e-17 -5.55055e-17 -1 18155.8 2480.47)" fill="#FFFAC9"/>
</g>
<g id="Star">
<use xlink:href="#path7_fill" transform="matrix(-1 5.55168e-17 -5.55055e-17 -1 18527.5 2491.12)" fill="#75714A"/>
</g>
<g id="Star">
<use xlink:href="#path3_fill" transform="matrix(-1 5.55168e-17 -5.55055e-17 -1 18371.6 2626.62)" fill="#75714A"/>
</g>
<g id="Star">
<use xlink:href="#path3_fill" transform="matrix(-1 5.55168e-17 -5.55055e-17 -1 18635.6 2605.61)" fill="#75714A"/>
</g>
<g id="Star">
<use xlink:href="#path7_fill" transform="matrix(-1 5.55168e-17 -5.55055e-17 -1 18571.6 2747.5)" fill="#75714A"/>
</g>
<g id="Star">
<use xlink:href="#path3_fill" transform="matrix(-1 5.55168e-17 -5.55055e-17 -1 18280.6 2415.31)" fill="#75714A"/>
</g>
<g id="Star">
<use xlink:href="#path3_fill" transform="matrix(-1 5.55168e-17 -5.55055e-17 -1 18905.3 2684.78)" fill="#75714A"/>
</g>
<g id="Star">
<use xlink:href="#path3_fill" transform="matrix(-1 5.55168e-17 -5.55055e-17 -1 18935.8 2475.59)" fill="#75714A"/>
</g>
<g id="Star">
<use xlink:href="#path3_fill" transform="matrix(-1 5.55168e-17 -5.55055e-17 -1 19198.5 2598)" fill="#75714A"/>
</g>
<g id="Star">
<use xlink:href="#path3_fill" transform="matrix(-1 5.55168e-17 -5.55055e-17 -1 19124.8 2747.5)" fill="#75714A"/>
</g>
<g id="Star">
<use xlink:href="#path8_fill" transform="matrix(-1 5.55168e-17 -5.55055e-17 -1 19237.2 2439.97)" fill="#75714A"/>
</g>
<g id="Star">
<use xlink:href="#path3_fill" transform="matrix(-1 5.55168e-17 -5.55055e-17 -1 19039.6 2368.72)" fill="#75714A"/>
</g>
</g>
<g id="Stars" filter="url(#filter2_d)">
<g id="Star">
<use xlink:href="#path1_fill" transform="matrix(-1 5.55168e-17 -5.55055e-17 -1 17781.6 3089.08)" fill="#FFFAC9"/>
</g>
<g id="Star">
<use xlink:href="#path2_fill" transform="matrix(-1 5.55168e-17 -5.55055e-17 -1 17658.6 3199)" fill="#FFFFFF"/>
</g>
<g id="Star">
<use xlink:href="#path2_fill" transform="matrix(-1 5.55168e-17 -5.55055e-17 -1 17507.6 2910.34)" fill="#FFFFFF"/>
</g>
<g id="Star">
<use xlink:href="#path2_fill" transform="matrix(-1 5.55168e-17 -5.55055e-17 -1 17209.2 2890.25)" fill="#FFFFFF"/>
</g>
<g id="Star">
<use xlink:href="#path2_fill" transform="matrix(-1 5.55168e-17 -5.55055e-17 -1 18118 3161.55)" fill="#FFFFFF"/>
</g>
<g id="Star">
<use xlink:href="#path1_fill" transform="matrix(-1 5.55168e-17 -5.55055e-17 -1 17623.9 2848.23)" fill="#FFFAC9"/>
</g>
<g id="Star">
<use xlink:href="#path1_fill" transform="matrix(-1 5.55168e-17 -5.55055e-17 -1 17549 2974.29)" fill="#FFFAC9"/>
</g>
<g id="Star">
<use xlink:href="#path1_fill" transform="matrix(-1 5.55168e-17 -5.55055e-17 -1 17391.9 2797.68)" fill="#FFFAC9"/>
</g>
<g id="Star">
<use xlink:href="#path1_fill" transform="matrix(-1 5.55168e-17 -5.55055e-17 -1 17116.3 3194.43)" fill="#FFFAC9"/>
</g>
<g id="Star">
<use xlink:href="#path1_fill" transform="matrix(-1 5.55168e-17 -5.55055e-17 -1 16960.8 2927.4)" fill="#FFFAC9"/>
</g>
<g id="Star">
<use xlink:href="#path3_fill" transform="matrix(-1 5.55168e-17 -5.55055e-17 -1 17332.5 2938.05)" fill="#75714A"/>
</g>
<g id="Star">
<use xlink:href="#path3_fill" transform="matrix(-1 5.55168e-17 -5.55055e-17 -1 17176.6 3073.55)" fill="#75714A"/>
</g>
<g id="Star">
<use xlink:href="#path3_fill" transform="matrix(-1 5.55168e-17 -5.55055e-17 -1 17440.6 3052.54)" fill="#75714A"/>
</g>
<g id="Star">
<use xlink:href="#path3_fill" transform="matrix(-1 5.55168e-17 -5.55055e-17 -1 17376.6 3194.43)" fill="#75714A"/>
</g>
<g id="Star">
<use xlink:href="#path3_fill" transform="matrix(-1 5.55168e-17 -5.55055e-17 -1 17085.6 2862.24)" fill="#75714A"/>
</g>
<g id="Star">
<use xlink:href="#path3_fill" transform="matrix(-1 5.55168e-17 -5.55055e-17 -1 17710.3 3131.71)" fill="#75714A"/>
</g>
<g id="Star">
<use xlink:href="#path3_fill" transform="matrix(-1 5.55168e-17 -5.55055e-17 -1 17740.8 2922.52)" fill="#75714A"/>
</g>
<g id="Star">
<use xlink:href="#path3_fill" transform="matrix(-1 5.55168e-17 -5.55055e-17 -1 18003.5 3044.93)" fill="#75714A"/>
</g>
<g id="Star">
<use xlink:href="#path3_fill" transform="matrix(-1 5.55168e-17 -5.55055e-17 -1 17929.8 3194.43)" fill="#75714A"/>
</g>
<g id="Star">
<use xlink:href="#path3_fill" transform="matrix(-1 5.55168e-17 -5.55055e-17 -1 18042.2 2886.9)" fill="#75714A"/>
</g>
<g id="Star">
<use xlink:href="#path3_fill" transform="matrix(-1 5.55168e-17 -5.55055e-17 -1 17844.6 2815.65)" fill="#75714A"/>
</g>
</g>
<g id="Stars" filter="url(#filter3_d)">
<g id="Star">
<use xlink:href="#path1_fill" transform="matrix(1 -5.55168e-17 5.55055e-17 1 18444.9 2852.46)" fill="#FFFAC9"/>
</g>
<g id="Star">
<use xlink:href="#path2_fill" transform="matrix(1 -5.55168e-17 5.55055e-17 1 18567.9 2742.54)" fill="#FFFFFF"/>
</g>
<g id="Star">
<use xlink:href="#path2_fill" transform="matrix(1 -5.55168e-17 5.55055e-17 1 18718.9 3031.19)" fill="#FFFFFF"/>
</g>
<g id="Star">
<use xlink:href="#path2_fill" transform="matrix(1 -5.55168e-17 5.55055e-17 1 19017.3 3051.29)" fill="#FFFFFF"/>
</g>
<g id="Star">
<use xlink:href="#path2_fill" transform="matrix(1 -5.55168e-17 5.55055e-17 1 18108.5 2779.99)" fill="#FFFFFF"/>
</g>
<g id="Star">
<use xlink:href="#path9_fill" transform="matrix(1 -5.55168e-17 5.55055e-17 1 18602.6 3093.31)" fill="#FFFAC9"/>
</g>
<g id="Star">
<use xlink:href="#path6_fill" transform="matrix(1 -5.55168e-17 5.55055e-17 1 18677.5 2967.25)" fill="#FFFAC9"/>
</g>
<g id="Star">
<use xlink:href="#path6_fill" transform="matrix(1 -5.55168e-17 5.55055e-17 1 18834.6 3143.85)" fill="#FFFAC9"/>
</g>
<g id="Star">
<use xlink:href="#path1_fill" transform="matrix(1 -5.55168e-17 5.55055e-17 1 19110.1 2747.1)" fill="#FFFAC9"/>
</g>
<g id="Star">
<use xlink:href="#path6_fill" transform="matrix(1 -5.55168e-17 5.55055e-17 1 19265.7 3014.14)" fill="#FFFAC9"/>
</g>
<g id="Star">
<use xlink:href="#path7_fill" transform="matrix(1 -5.55168e-17 5.55055e-17 1 18894 3003.48)" fill="#75714A"/>
</g>
<g id="Star">
<use xlink:href="#path3_fill" transform="matrix(1 -5.55168e-17 5.55055e-17 1 19049.8 2867.99)" fill="#75714A"/>
</g>
<g id="Star">
<use xlink:href="#path3_fill" transform="matrix(1 -5.55168e-17 5.55055e-17 1 18785.9 2889)" fill="#75714A"/>
</g>
<g id="Star">
<use xlink:href="#path7_fill" transform="matrix(1 -5.55168e-17 5.55055e-17 1 18849.8 2747.1)" fill="#75714A"/>
</g>
<g id="Star">
<use xlink:href="#path3_fill" transform="matrix(1 -5.55168e-17 5.55055e-17 1 19140.9 3079.3)" fill="#75714A"/>
</g>
<g id="Star">
<use xlink:href="#path3_fill" transform="matrix(1 -5.55168e-17 5.55055e-17 1 18516.1 2809.83)" fill="#75714A"/>
</g>
<g id="Star">
<use xlink:href="#path3_fill" transform="matrix(1 -5.55168e-17 5.55055e-17 1 18485.7 3019.01)" fill="#75714A"/>
</g>
<g id="Star">
<use xlink:href="#path3_fill" transform="matrix(1 -5.55168e-17 5.55055e-17 1 18222.9 2896.61)" fill="#75714A"/>
</g>
<g id="Star">
<use xlink:href="#path3_fill" transform="matrix(1 -5.55168e-17 5.55055e-17 1 18296.6 2747.1)" fill="#75714A"/>
</g>
<g id="Star">
<use xlink:href="#path3_fill" transform="matrix(1 -5.55168e-17 5.55055e-17 1 18184.3 3054.64)" fill="#75714A"/>
</g>
<g id="Star">
<use xlink:href="#path3_fill" transform="matrix(1 -5.55168e-17 5.55055e-17 1 18381.9 3125.89)" fill="#75714A"/>
</g>
</g>
<g id="Stars" filter="url(#filter4_d)">
<g id="Star">
<use xlink:href="#path1_fill" transform="matrix(-1 5.55168e-17 -5.55055e-17 -1 18976.6 3983.08)" fill="#FFFAC9"/>
</g>
<g id="Star">
<use xlink:href="#path2_fill" transform="matrix(-1 5.55168e-17 -5.55055e-17 -1 18853.6 4093)" fill="#FFFFFF"/>
</g>
<g id="Star">
<use xlink:href="#path2_fill" transform="matrix(-1 5.55168e-17 -5.55055e-17 -1 18702.6 3804.34)" fill="#FFFFFF"/>
</g>
<g id="Star">
<use xlink:href="#path2_fill" transform="matrix(-1 5.55168e-17 -5.55055e-17 -1 18404.2 3784.25)" fill="#FFFFFF"/>
</g>
<g id="Star">
<use xlink:href="#path2_fill" transform="matrix(-1 5.55168e-17 -5.55055e-17 -1 19313 4055.55)" fill="#FFFFFF"/>
</g>
<g id="Star">
<use xlink:href="#path1_fill" transform="matrix(-1 5.55168e-17 -5.55055e-17 -1 18818.9 3742.23)" fill="#FFFAC9"/>
</g>
<g id="Star">
<use xlink:href="#path1_fill" transform="matrix(-1 5.55168e-17 -5.55055e-17 -1 18744 3868.29)" fill="#FFFAC9"/>
</g>
<g id="Star">
<use xlink:href="#path1_fill" transform="matrix(-1 5.55168e-17 -5.55055e-17 -1 18586.9 3691.68)" fill="#FFFAC9"/>
</g>
<g id="Star">
<use xlink:href="#path1_fill" transform="matrix(-1 5.55168e-17 -5.55055e-17 -1 18311.3 4088.43)" fill="#FFFAC9"/>
</g>
<g id="Star">
<use xlink:href="#path1_fill" transform="matrix(-1 5.55168e-17 -5.55055e-17 -1 18155.8 3821.4)" fill="#FFFAC9"/>
</g>
<g id="Star">
<use xlink:href="#path3_fill" transform="matrix(-1 5.55168e-17 -5.55055e-17 -1 18527.5 3832.05)" fill="#75714A"/>
</g>
<g id="Star">
<use xlink:href="#path3_fill" transform="matrix(-1 5.55168e-17 -5.55055e-17 -1 18371.6 3967.55)" fill="#75714A"/>
</g>
<g id="Star">
<use xlink:href="#path3_fill" transform="matrix(-1 5.55168e-17 -5.55055e-17 -1 18635.6 3946.54)" fill="#75714A"/>
</g>
<g id="Star">
<use xlink:href="#path3_fill" transform="matrix(-1 5.55168e-17 -5.55055e-17 -1 18571.6 4088.43)" fill="#75714A"/>
</g>
<g id="Star">
<use xlink:href="#path3_fill" transform="matrix(-1 5.55168e-17 -5.55055e-17 -1 18280.6 3756.24)" fill="#75714A"/>
</g>
<g id="Star">
<use xlink:href="#path3_fill" transform="matrix(-1 5.55168e-17 -5.55055e-17 -1 18905.3 4025.71)" fill="#75714A"/>
</g>
<g id="Star">
<use xlink:href="#path3_fill" transform="matrix(-1 5.55168e-17 -5.55055e-17 -1 18935.8 3816.52)" fill="#75714A"/>
</g>
<g id="Star">
<use xlink:href="#path3_fill" transform="matrix(-1 5.55168e-17 -5.55055e-17 -1 19198.5 3938.93)" fill="#75714A"/>
</g>
<g id="Star">
<use xlink:href="#path3_fill" transform="matrix(-1 5.55168e-17 -5.55055e-17 -1 19124.8 4088.43)" fill="#75714A"/>
</g>
<g id="Star">
<use xlink:href="#path3_fill" transform="matrix(-1 5.55168e-17 -5.55055e-17 -1 19237.2 3780.9)" fill="#75714A"/>
</g>
<g id="Star">
<use xlink:href="#path3_fill" transform="matrix(-1 5.55168e-17 -5.55055e-17 -1 19039.6 3709.65)" fill="#75714A"/>
</g>
</g>
<g id="Stars" filter="url(#filter5_d)">
<g id="Star">
<use xlink:href="#path1_fill" transform="matrix(1 -5.55168e-17 5.55055e-17 1 17187.9 3920.37)" fill="#FFFAC9"/>
</g>
<g id="Star">
<use xlink:href="#path2_fill" transform="matrix(1 -5.55168e-17 5.55055e-17 1 17389.4 3660.93)" fill="#FFFFFF"/>
</g>
<g id="Star">
<use xlink:href="#path2_fill" transform="matrix(1 -5.55168e-17 5.55055e-17 1 17540.4 3949.59)" fill="#FFFFFF"/>
</g>
<g id="Star">
<use xlink:href="#path2_fill" transform="matrix(1 -5.55168e-17 5.55055e-17 1 17838.8 3969.68)" fill="#FFFFFF"/>
</g>
<g id="Star">
<use xlink:href="#path4_fill" transform="matrix(1 -5.55168e-17 5.55055e-17 1 16930 3698.38)" fill="#FFFFFF"/>
</g>
<g id="Star">
<use xlink:href="#path5_fill" transform="matrix(1 -5.55168e-17 5.55055e-17 1 17424.1 4011.7)" fill="#FFFAC9"/>
</g>
<g id="Star">
<use xlink:href="#path6_fill" transform="matrix(1 -5.55168e-17 5.55055e-17 1 17499 3885.64)" fill="#FFFAC9"/>
</g>
<g id="Star">
<use xlink:href="#path5_fill" transform="matrix(1 -5.55168e-17 5.55055e-17 1 17656.1 4062.25)" fill="#FFFAC9"/>
</g>
<g id="Star">
<use xlink:href="#path1_fill" transform="matrix(1 -5.55168e-17 5.55055e-17 1 17931.7 3665.5)" fill="#FFFAC9"/>
</g>
<g id="Star">
<use xlink:href="#path1_fill" transform="matrix(1 -5.55168e-17 5.55055e-17 1 18087.2 3932.53)" fill="#FFFAC9"/>
</g>
<g id="Star">
<use xlink:href="#path7_fill" transform="matrix(1 -5.55168e-17 5.55055e-17 1 17715.5 3921.88)" fill="#75714A"/>
</g>
<g id="Star">
<use xlink:href="#path3_fill" transform="matrix(1 -5.55168e-17 5.55055e-17 1 17871.4 3786.38)" fill="#75714A"/>
</g>
<g id="Star">
<use xlink:href="#path3_fill" transform="matrix(1 -5.55168e-17 5.55055e-17 1 17607.4 3807.39)" fill="#75714A"/>
</g>
<g id="Star">
<use xlink:href="#path7_fill" transform="matrix(1 -5.55168e-17 5.55055e-17 1 17671.4 3665.5)" fill="#75714A"/>
</g>
<g id="Star">
<use xlink:href="#path3_fill" transform="matrix(1 -5.55168e-17 5.55055e-17 1 17962.4 3997.69)" fill="#75714A"/>
</g>
<g id="Star">
<use xlink:href="#path3_fill" transform="matrix(1 -5.55168e-17 5.55055e-17 1 17337.7 3728.22)" fill="#75714A"/>
</g>
<g id="Star">
<use xlink:href="#path3_fill" transform="matrix(1 -5.55168e-17 5.55055e-17 1 17307.2 3937.41)" fill="#75714A"/>
</g>
<g id="Star">
<use xlink:href="#path3_fill" transform="matrix(1 -5.55168e-17 5.55055e-17 1 17044.5 3815)" fill="#75714A"/>
</g>
<g id="Star">
<use xlink:href="#path3_fill" transform="matrix(1 -5.55168e-17 5.55055e-17 1 17118.2 3665.5)" fill="#75714A"/>
</g>
<g id="Star">
<use xlink:href="#path8_fill" transform="matrix(1 -5.55168e-17 5.55055e-17 1 17005.8 3973.03)" fill="#75714A"/>
</g>
<g id="Star">
<use xlink:href="#path3_fill" transform="matrix(1 -5.55168e-17 5.55055e-17 1 17203.4 4044.28)" fill="#75714A"/>
</g>
</g>
<g id="Stars" filter="url(#filter6_d)">
<g id="Star">
<use xlink:href="#path1_fill" transform="matrix(1 -5.55168e-17 5.55055e-17 1 18461.4 3323.92)" fill="#FFFAC9"/>
</g>
<g id="Star">
<use xlink:href="#path2_fill" transform="matrix(1 -5.55168e-17 5.55055e-17 1 18584.4 3214)" fill="#FFFFFF"/>
</g>
<g id="Star">
<use xlink:href="#path2_fill" transform="matrix(1 -5.55168e-17 5.55055e-17 1 18735.4 3502.66)" fill="#FFFFFF"/>
</g>
<g id="Star">
<use xlink:href="#path2_fill" transform="matrix(1 -5.55168e-17 5.55055e-17 1 19033.8 3522.75)" fill="#FFFFFF"/>
</g>
<g id="Star">
<use xlink:href="#path2_fill" transform="matrix(1 -5.55168e-17 5.55055e-17 1 18125 3251.45)" fill="#FFFFFF"/>
</g>
<g id="Star">
<use xlink:href="#path1_fill" transform="matrix(1 -5.55168e-17 5.55055e-17 1 18619.1 3564.77)" fill="#FFFAC9"/>
</g>
<g id="Star">
<use xlink:href="#path1_fill" transform="matrix(1 -5.55168e-17 5.55055e-17 1 18694 3438.71)" fill="#FFFAC9"/>
</g>
<g id="Star">
<use xlink:href="#path1_fill" transform="matrix(1 -5.55168e-17 5.55055e-17 1 18851.1 3615.32)" fill="#FFFAC9"/>
</g>
<g id="Star">
<use xlink:href="#path1_fill" transform="matrix(1 -5.55168e-17 5.55055e-17 1 19126.7 3218.57)" fill="#FFFAC9"/>
</g>
<g id="Star">
<use xlink:href="#path1_fill" transform="matrix(1 -5.55168e-17 5.55055e-17 1 19282.2 3485.6)" fill="#FFFAC9"/>
</g>
<g id="Star">
<use xlink:href="#path3_fill" transform="matrix(1 -5.55168e-17 5.55055e-17 1 18910.5 3474.95)" fill="#75714A"/>
</g>
<g id="Star">
<use xlink:href="#path3_fill" transform="matrix(1 -5.55168e-17 5.55055e-17 1 19066.4 3339.45)" fill="#75714A"/>
</g>
<g id="Star">
<use xlink:href="#path3_fill" transform="matrix(1 -5.55168e-17 5.55055e-17 1 18802.4 3360.46)" fill="#75714A"/>
</g>
<g id="Star">
<use xlink:href="#path3_fill" transform="matrix(1 -5.55168e-17 5.55055e-17 1 18866.4 3218.57)" fill="#75714A"/>
</g>
<g id="Star">
<use xlink:href="#path3_fill" transform="matrix(1 -5.55168e-17 5.55055e-17 1 19157.4 3550.76)" fill="#75714A"/>
</g>
<g id="Star">
<use xlink:href="#path3_fill" transform="matrix(1 -5.55168e-17 5.55055e-17 1 18532.7 3281.29)" fill="#75714A"/>
</g>
<g id="Star">
<use xlink:href="#path3_fill" transform="matrix(1 -5.55168e-17 5.55055e-17 1 18502.2 3490.48)" fill="#75714A"/>
</g>
<g id="Star">
<use xlink:href="#path3_fill" transform="matrix(1 -5.55168e-17 5.55055e-17 1 18239.5 3368.07)" fill="#75714A"/>
</g>
<g id="Star">
<use xlink:href="#path3_fill" transform="matrix(1 -5.55168e-17 5.55055e-17 1 18313.2 3218.57)" fill="#75714A"/>
</g>
<g id="Star">
<use xlink:href="#path3_fill" transform="matrix(1 -5.55168e-17 5.55055e-17 1 18200.8 3526.1)" fill="#75714A"/>
</g>
<g id="Star">
<use xlink:href="#path3_fill" transform="matrix(1 -5.55168e-17 5.55055e-17 1 18398.4 3597.35)" fill="#75714A"/>
</g>
</g>
<g id="Stars" filter="url(#filter7_d)">
<g id="Star">
<use xlink:href="#path1_fill" transform="matrix(-1 5.55168e-17 -5.55055e-17 -1 17798.1 3560.54)" fill="#FFFAC9"/>
</g>
<g id="Star">
<use xlink:href="#path2_fill" transform="matrix(-1 5.55168e-17 -5.55055e-17 -1 17675.1 3670.46)" fill="#FFFFFF"/>
</g>
<g id="Star">
<use xlink:href="#path2_fill" transform="matrix(-1 5.55168e-17 -5.55055e-17 -1 17524.1 3381.81)" fill="#FFFFFF"/>
</g>
<g id="Star">
<use xlink:href="#path2_fill" transform="matrix(-1 5.55168e-17 -5.55055e-17 -1 17225.7 3361.71)" fill="#FFFFFF"/>
</g>
<g id="Star">
<use xlink:href="#path2_fill" transform="matrix(-1 5.55168e-17 -5.55055e-17 -1 18134.5 3633.01)" fill="#FFFFFF"/>
</g>
<g id="Star">
<use xlink:href="#path9_fill" transform="matrix(-1 5.55168e-17 -5.55055e-17 -1 17640.4 3319.69)" fill="#FFFAC9"/>
</g>
<g id="Star">
<use xlink:href="#path6_fill" transform="matrix(-1 5.55168e-17 -5.55055e-17 -1 17565.5 3445.75)" fill="#FFFAC9"/>
</g>
<g id="Star">
<use xlink:href="#path6_fill" transform="matrix(-1 5.55168e-17 -5.55055e-17 -1 17408.4 3269.15)" fill="#FFFAC9"/>
</g>
<g id="Star">
<use xlink:href="#path1_fill" transform="matrix(-1 5.55168e-17 -5.55055e-17 -1 17132.9 3665.9)" fill="#FFFAC9"/>
</g>
<g id="Star">
<use xlink:href="#path6_fill" transform="matrix(-1 5.55168e-17 -5.55055e-17 -1 16977.3 3398.86)" fill="#FFFAC9"/>
</g>
<g id="Star">
<use xlink:href="#path7_fill" transform="matrix(-1 5.55168e-17 -5.55055e-17 -1 17349 3409.52)" fill="#75714A"/>
</g>
<g id="Star">
<use xlink:href="#path3_fill" transform="matrix(-1 5.55168e-17 -5.55055e-17 -1 17193.2 3545.01)" fill="#75714A"/>
</g>
<g id="Star">
<use xlink:href="#path3_fill" transform="matrix(-1 5.55168e-17 -5.55055e-17 -1 17457.1 3524)" fill="#75714A"/>
</g>
<g id="Star">
<use xlink:href="#path7_fill" transform="matrix(-1 5.55168e-17 -5.55055e-17 -1 17393.2 3665.9)" fill="#75714A"/>
</g>
<g id="Star">
<use xlink:href="#path3_fill" transform="matrix(-1 5.55168e-17 -5.55055e-17 -1 17102.1 3333.7)" fill="#75714A"/>
</g>
<g id="Star">
<use xlink:href="#path3_fill" transform="matrix(-1 5.55168e-17 -5.55055e-17 -1 17726.9 3603.17)" fill="#75714A"/>
</g>
<g id="Star">
<use xlink:href="#path3_fill" transform="matrix(-1 5.55168e-17 -5.55055e-17 -1 17757.3 3393.99)" fill="#75714A"/>
</g>
<g id="Star">
<use xlink:href="#path3_fill" transform="matrix(-1 5.55168e-17 -5.55055e-17 -1 18020.1 3516.39)" fill="#75714A"/>
</g>
<g id="Star">
<use xlink:href="#path3_fill" transform="matrix(-1 5.55168e-17 -5.55055e-17 -1 17946.4 3665.9)" fill="#75714A"/>
</g>
<g id="Star">
<use xlink:href="#path3_fill" transform="matrix(-1 5.55168e-17 -5.55055e-17 -1 18058.7 3358.36)" fill="#75714A"/>
</g>
<g id="Star">
<use xlink:href="#path3_fill" transform="matrix(-1 5.55168e-17 -5.55055e-17 -1 17861.1 3287.11)" fill="#75714A"/>
</g>
</g>
<g id="Stars" filter="url(#filter8_d)">
<g id="Star">
<use xlink:href="#path1_fill" transform="matrix(1 -5.55168e-17 5.55055e-17 1 18461.4 4241.92)" fill="#FFFAC9"/>
</g>
<g id="Star">
<use xlink:href="#path2_fill" transform="matrix(1 -5.55168e-17 5.55055e-17 1 18584.4 4132)" fill="#FFFFFF"/>
</g>
<g id="Star">
<use xlink:href="#path2_fill" transform="matrix(1 -5.55168e-17 5.55055e-17 1 18735.4 4420.66)" fill="#FFFFFF"/>
</g>
<g id="Star">
<use xlink:href="#path2_fill" transform="matrix(1 -5.55168e-17 5.55055e-17 1 19033.8 4440.75)" fill="#FFFFFF"/>
</g>
<g id="Star">
<use xlink:href="#path2_fill" transform="matrix(1 -5.55168e-17 5.55055e-17 1 18125 4169.45)" fill="#FFFFFF"/>
</g>
<g id="Star">
<use xlink:href="#path1_fill" transform="matrix(1 -5.55168e-17 5.55055e-17 1 18619.1 4482.77)" fill="#FFFAC9"/>
</g>
<g id="Star">
<use xlink:href="#path1_fill" transform="matrix(1 -5.55168e-17 5.55055e-17 1 18694 4356.71)" fill="#FFFAC9"/>
</g>
<g id="Star">
<use xlink:href="#path1_fill" transform="matrix(1 -5.55168e-17 5.55055e-17 1 18851.1 4533.32)" fill="#FFFAC9"/>
</g>
<g id="Star">
<use xlink:href="#path1_fill" transform="matrix(1 -5.55168e-17 5.55055e-17 1 19126.7 4136.57)" fill="#FFFAC9"/>
</g>
<g id="Star">
<use xlink:href="#path1_fill" transform="matrix(1 -5.55168e-17 5.55055e-17 1 19282.2 4403.6)" fill="#FFFAC9"/>
</g>
<g id="Star">
<use xlink:href="#path3_fill" transform="matrix(1 -5.55168e-17 5.55055e-17 1 18910.5 4392.95)" fill="#75714A"/>
</g>
<g id="Star">
<use xlink:href="#path3_fill" transform="matrix(1 -5.55168e-17 5.55055e-17 1 19066.4 4257.45)" fill="#75714A"/>
</g>
<g id="Star">
<use xlink:href="#path3_fill" transform="matrix(1 -5.55168e-17 5.55055e-17 1 18802.4 4278.46)" fill="#75714A"/>
</g>
<g id="Star">
<use xlink:href="#path3_fill" transform="matrix(1 -5.55168e-17 5.55055e-17 1 18866.4 4136.57)" fill="#75714A"/>
</g>
<g id="Star">
<use xlink:href="#path3_fill" transform="matrix(1 -5.55168e-17 5.55055e-17 1 19157.4 4468.76)" fill="#75714A"/>
</g>
<g id="Star">
<use xlink:href="#path3_fill" transform="matrix(1 -5.55168e-17 5.55055e-17 1 18532.7 4199.29)" fill="#75714A"/>
</g>
<g id="Star">
<use xlink:href="#path3_fill" transform="matrix(1 -5.55168e-17 5.55055e-17 1 18502.2 4408.48)" fill="#75714A"/>
</g>
<g id="Star">
<use xlink:href="#path3_fill" transform="matrix(1 -5.55168e-17 5.55055e-17 1 18239.5 4286.07)" fill="#75714A"/>
</g>
<g id="Star">
<use xlink:href="#path3_fill" transform="matrix(1 -5.55168e-17 5.55055e-17 1 18313.2 4136.57)" fill="#75714A"/>
</g>
<g id="Star">
<use xlink:href="#path3_fill" transform="matrix(1 -5.55168e-17 5.55055e-17 1 18200.8 4444.1)" fill="#75714A"/>
</g>
<g id="Star">
<use xlink:href="#path3_fill" transform="matrix(1 -5.55168e-17 5.55055e-17 1 18398.4 4475.35)" fill="#75714A"/>
</g>
</g>
<g id="Stars" filter="url(#filter9_d)">
<g id="Star">
<use xlink:href="#path1_fill" transform="matrix(-1 5.55168e-17 -5.55055e-17 -1 17798.1 4478.54)" fill="#FFFAC9"/>
</g>
<g id="Star">
<use xlink:href="#path2_fill" transform="matrix(-1 5.55168e-17 -5.55055e-17 -1 17675.1 4638.46)" fill="#FFFFFF"/>
</g>
<g id="Star">
<use xlink:href="#path2_fill" transform="matrix(-1 5.55168e-17 -5.55055e-17 -1 17524.1 4299.81)" fill="#FFFFFF"/>
</g>
<g id="Star">
<use xlink:href="#path2_fill" transform="matrix(-1 5.55168e-17 -5.55055e-17 -1 17225.7 4279.71)" fill="#FFFFFF"/>
</g>
<g id="Star">
<use xlink:href="#path2_fill" transform="matrix(-1 5.55168e-17 -5.55055e-17 -1 18134.5 4551.01)" fill="#FFFFFF"/>
</g>
<g id="Star">
<use xlink:href="#path9_fill" transform="matrix(-1 5.55168e-17 -5.55055e-17 -1 17640.4 4237.69)" fill="#FFFAC9"/>
</g>
<g id="Star">
<use xlink:href="#path6_fill" transform="matrix(-1 5.55168e-17 -5.55055e-17 -1 17565.5 4363.75)" fill="#FFFAC9"/>
</g>
<g id="Star">
<use xlink:href="#path6_fill" transform="matrix(-1 5.55168e-17 -5.55055e-17 -1 17408.4 4187.15)" fill="#FFFAC9"/>
</g>
<g id="Star">
<use xlink:href="#path1_fill" transform="matrix(-1 5.55168e-17 -5.55055e-17 -1 17132.9 4583.9)" fill="#FFFAC9"/>
</g>
<g id="Star">
<use xlink:href="#path6_fill" transform="matrix(-1 5.55168e-17 -5.55055e-17 -1 16977.3 4316.86)" fill="#FFFAC9"/>
</g>
<g id="Star">
<use xlink:href="#path7_fill" transform="matrix(-1 5.55168e-17 -5.55055e-17 -1 17349 4327.52)" fill="#75714A"/>
</g>
<g id="Star">
<use xlink:href="#path3_fill" transform="matrix(-1 5.55168e-17 -5.55055e-17 -1 17193.2 4463.01)" fill="#75714A"/>
</g>
<g id="Star">
<use xlink:href="#path3_fill" transform="matrix(-1 5.55168e-17 -5.55055e-17 -1 17457.1 4442)" fill="#75714A"/>
</g>
<g id="Star">
<use xlink:href="#path7_fill" transform="matrix(-1 5.55168e-17 -5.55055e-17 -1 17393.2 4583.9)" fill="#75714A"/>
</g>
<g id="Star">
<use xlink:href="#path3_fill" transform="matrix(-1 5.55168e-17 -5.55055e-17 -1 17102.1 4251.7)" fill="#75714A"/>
</g>
<g id="Star">
<use xlink:href="#path3_fill" transform="matrix(-1 5.55168e-17 -5.55055e-17 -1 17726.9 4521.17)" fill="#75714A"/>
</g>
<g id="Star">
<use xlink:href="#path3_fill" transform="matrix(-1 5.55168e-17 -5.55055e-17 -1 17757.3 4311.99)" fill="#75714A"/>
</g>
<g id="Star">
<use xlink:href="#path3_fill" transform="matrix(-1 5.55168e-17 -5.55055e-17 -1 18020.1 4434.39)" fill="#75714A"/>
</g>
<g id="Star">
<use xlink:href="#path3_fill" transform="matrix(-1 5.55168e-17 -5.55055e-17 -1 17946.4 4483.9)" fill="#75714A"/>
</g>
<g id="Star">
<use xlink:href="#path3_fill" transform="matrix(-1 5.55168e-17 -5.55055e-17 -1 18058.7 4276.36)" fill="#75714A"/>
</g>
<g id="Star">
<use xlink:href="#path1_fill" transform="matrix(-1 -5.55168e-17 -5.55055e-17 1 17567 4556.98)" fill="#FFFAC9"/>
</g>
<g id="Star">
<use xlink:href="#path1_fill" transform="matrix(-1 -5.55168e-17 -5.55055e-17 1 17334.4 4671.77)" fill="#FFFAC9"/>
</g>
<g id="Star">
<use xlink:href="#path3_fill" transform="matrix(-1 -5.55168e-17 -5.55055e-17 1 16962.1 4572.51)" fill="#75714A"/>
</g>
<g id="Star">
<use xlink:href="#path3_fill" transform="matrix(-1 -5.55168e-17 -5.55055e-17 1 17226 4593.52)" fill="#75714A"/>
</g>
<g id="Star">
<use xlink:href="#path3_fill" transform="matrix(-1 -5.55168e-17 -5.55055e-17 1 17789 4601.13)" fill="#75714A"/>
</g>
<g id="Star">
<use xlink:href="#path2_fill" transform="matrix(1 5.55168e-17 5.55055e-17 -1 18504.4 4614.87)" fill="#FFFFFF"/>
</g>
<g id="Star">
<use xlink:href="#path2_fill" transform="matrix(1 5.55168e-17 5.55055e-17 -1 18802.7 4594.77)" fill="#FFFFFF"/>
</g>
<g id="Star">
<use xlink:href="#path9_fill" transform="matrix(1 5.55168e-17 5.55055e-17 -1 18388.1 4552.75)" fill="#FFFAC9"/>
</g>
<g id="Star">
<use xlink:href="#path6_fill" transform="matrix(1 5.55168e-17 5.55055e-17 -1 18463 4678.81)" fill="#FFFAC9"/>
</g>
<g id="Star">
<use xlink:href="#path6_fill" transform="matrix(1 5.55168e-17 5.55055e-17 -1 19051.2 4631.92)" fill="#FFFAC9"/>
</g>
<g id="Star">
<use xlink:href="#path7_fill" transform="matrix(1 5.55168e-17 5.55055e-17 -1 18679.4 4642.58)" fill="#75714A"/>
</g>
<g id="Star">
<use xlink:href="#path3_fill" transform="matrix(1 5.55168e-17 5.55055e-17 -1 18926.3 4566.76)" fill="#75714A"/>
</g>
<g id="Star">
<use xlink:href="#path3_fill" transform="matrix(1 5.55168e-17 5.55055e-17 -1 18271.1 4627.05)" fill="#75714A"/>
</g>
<g id="Star">
<use xlink:href="#path3_fill" transform="matrix(1 5.55168e-17 5.55055e-17 -1 17969.7 4591.42)" fill="#75714A"/>
</g>
<g id="Star">
<use xlink:href="#path3_fill" transform="matrix(-1 5.55168e-17 -5.55055e-17 -1 17861.1 4205.11)" fill="#75714A"/>
</g>
</g>
</g>
</g>
<defs>
<filter id="filter0_d" filterUnits="userSpaceOnUse" x="16880" y="2270" width="1288" height="533" color-interpolation-filters="sRGB">
<feFlood flood-opacity="0" result="BackgroundImageFix"/>
<feColorMatrix in="SourceAlpha" type="matrix" values="0 0 0 0 0 0 0 0 0 0 0 0 0 0 0 0 0 0 255 0"/>
<feOffset dx="0" dy="0"/>
<feGaussianBlur stdDeviation="25"/>
<feColorMatrix type="matrix" values="0 0 0 0 1 0 0 0 0 1 0 0 0 0 1 0 0 0 0.25 0"/>
<feBlend mode="normal" in2="BackgroundImageFix" result="effect1_dropShadow"/>
<feBlend mode="normal" in="SourceGraphic" in2="effect1_dropShadow" result="shape"/>
</filter>
<filter id="filter1_d" filterUnits="userSpaceOnUse" x="18075" y="2270" width="1289" height="533" color-interpolation-filters="sRGB">
<feFlood flood-opacity="0" result="BackgroundImageFix"/>
<feColorMatrix in="SourceAlpha" type="matrix" values="0 0 0 0 0 0 0 0 0 0 0 0 0 0 0 0 0 0 255 0"/>
<feOffset dx="0" dy="0"/>
<feGaussianBlur stdDeviation="25"/>
<feColorMatrix type="matrix" values="0 0 0 0 1 0 0 0 0 1 0 0 0 0 1 0 0 0 0.25 0"/>
<feBlend mode="normal" in2="BackgroundImageFix" result="effect1_dropShadow"/>
<feBlend mode="normal" in="SourceGraphic" in2="effect1_dropShadow" result="shape"/>
</filter>
<filter id="filter2_d" filterUnits="userSpaceOnUse" x="16880" y="2716" width="1288" height="533" color-interpolation-filters="sRGB">
<feFlood flood-opacity="0" result="BackgroundImageFix"/>
<feColorMatrix in="SourceAlpha" type="matrix" values="0 0 0 0 0 0 0 0 0 0 0 0 0 0 0 0 0 0 255 0"/>
<feOffset dx="0" dy="0"/>
<feGaussianBlur stdDeviation="25"/>
<feColorMatrix type="matrix" values="0 0 0 0 1 0 0 0 0 1 0 0 0 0 1 0 0 0 0.25 0"/>
<feBlend mode="normal" in2="BackgroundImageFix" result="effect1_dropShadow"/>
<feBlend mode="normal" in="SourceGraphic" in2="effect1_dropShadow" result="shape"/>
</filter>
<filter id="filter3_d" filterUnits="userSpaceOnUse" x="18058" y="2692" width="1289" height="533" color-interpolation-filters="sRGB">
<feFlood flood-opacity="0" result="BackgroundImageFix"/>
<feColorMatrix in="SourceAlpha" type="matrix" values="0 0 0 0 0 0 0 0 0 0 0 0 0 0 0 0 0 0 255 0"/>
<feOffset dx="0" dy="0"/>
<feGaussianBlur stdDeviation="25"/>
<feColorMatrix type="matrix" values="0 0 0 0 1 0 0 0 0 1 0 0 0 0 1 0 0 0 0.25 0"/>
<feBlend mode="normal" in2="BackgroundImageFix" result="effect1_dropShadow"/>
<feBlend mode="normal" in="SourceGraphic" in2="effect1_dropShadow" result="shape"/>
</filter>
<filter id="filter4_d" filterUnits="userSpaceOnUse" x="18075" y="3610" width="1289" height="533" color-interpolation-filters="sRGB">
<feFlood flood-opacity="0" result="BackgroundImageFix"/>
<feColorMatrix in="SourceAlpha" type="matrix" values="0 0 0 0 0 0 0 0 0 0 0 0 0 0 0 0 0 0 255 0"/>
<feOffset dx="0" dy="0"/>
<feGaussianBlur stdDeviation="25"/>
<feColorMatrix type="matrix" values="0 0 0 0 1 0 0 0 0 1 0 0 0 0 1 0 0 0 0.25 0"/>
<feBlend mode="normal" in2="BackgroundImageFix" result="effect1_dropShadow"/>
<feBlend mode="normal" in="SourceGraphic" in2="effect1_dropShadow" result="shape"/>
</filter>
<filter id="filter5_d" filterUnits="userSpaceOnUse" x="16880" y="3610" width="1288" height="533" color-interpolation-filters="sRGB">
<feFlood flood-opacity="0" result="BackgroundImageFix"/>
<feColorMatrix in="SourceAlpha" type="matrix" values="0 0 0 0 0 0 0 0 0 0 0 0 0 0 0 0 0 0 255 0"/>
<feOffset dx="0" dy="0"/>
<feGaussianBlur stdDeviation="25"/>
<feColorMatrix type="matrix" values="0 0 0 0 1 0 0 0 0 1 0 0 0 0 1 0 0 0 0.25 0"/>
<feBlend mode="normal" in2="BackgroundImageFix" result="effect1_dropShadow"/>
<feBlend mode="normal" in="SourceGraphic" in2="effect1_dropShadow" result="shape"/>
</filter>
<filter id="filter6_d" filterUnits="userSpaceOnUse" x="18075" y="3164" width="1289" height="533" color-interpolation-filters="sRGB">
<feFlood flood-opacity="0" result="BackgroundImageFix"/>
<feColorMatrix in="SourceAlpha" type="matrix" values="0 0 0 0 0 0 0 0 0 0 0 0 0 0 0 0 0 0 255 0"/>
<feOffset dx="0" dy="0"/>
<feGaussianBlur stdDeviation="25"/>
<feColorMatrix type="matrix" values="0 0 0 0 1 0 0 0 0 1 0 0 0 0 1 0 0 0 0.25 0"/>
<feBlend mode="normal" in2="BackgroundImageFix" result="effect1_dropShadow"/>
<feBlend mode="normal" in="SourceGraphic" in2="effect1_dropShadow" result="shape"/>
</filter>
<filter id="filter7_d" filterUnits="userSpaceOnUse" x="16896" y="3188" width="1289" height="533" color-interpolation-filters="sRGB">
<feFlood flood-opacity="0" result="BackgroundImageFix"/>
<feColorMatrix in="SourceAlpha" type="matrix" values="0 0 0 0 0 0 0 0 0 0 0 0 0 0 0 0 0 0 255 0"/>
<feOffset dx="0" dy="0"/>
<feGaussianBlur stdDeviation="25"/>
<feColorMatrix type="matrix" values="0 0 0 0 1 0 0 0 0 1 0 0 0 0 1 0 0 0 0.25 0"/>
<feBlend mode="normal" in2="BackgroundImageFix" result="effect1_dropShadow"/>
<feBlend mode="normal" in="SourceGraphic" in2="effect1_dropShadow" result="shape"/>
</filter>
<filter id="filter8_d" filterUnits="userSpaceOnUse" x="18075" y="4082" width="1289" height="533" color-interpolation-filters="sRGB">
<feFlood flood-opacity="0" result="BackgroundImageFix"/>
<feColorMatrix in="SourceAlpha" type="matrix" values="0 0 0 0 0 0 0 0 0 0 0 0 0 0 0 0 0 0 255 0"/>
<feOffset dx="0" dy="0"/>
<feGaussianBlur stdDeviation="25"/>
<feColorMatrix type="matrix" values="0 0 0 0 1 0 0 0 0 1 0 0 0 0 1 0 0 0 0.25 0"/>
<feBlend mode="normal" in2="BackgroundImageFix" result="effect1_dropShadow"/>
<feBlend mode="normal" in="SourceGraphic" in2="effect1_dropShadow" result="shape"/>
</filter>
<filter id="filter9_d" filterUnits="userSpaceOnUse" x="16896" y="4106" width="2236" height="647" color-interpolation-filters="sRGB">
<feFlood flood-opacity="0" result="BackgroundImageFix"/>
<feColorMatrix in="SourceAlpha" type="matrix" values="0 0 0 0 0 0 0 0 0 0 0 0 0 0 0 0 0 0 255 0"/>
<feOffset dx="0" dy="0"/>
<feGaussianBlur stdDeviation="25"/>
<feColorMatrix type="matrix" values="0 0 0 0 1 0 0 0 0 1 0 0 0 0 1 0 0 0 0.25 0"/>
<feBlend mode="normal" in2="BackgroundImageFix" result="effect1_dropShadow"/>
<feBlend mode="normal" in="SourceGraphic" in2="effect1_dropShadow" result="shape"/>
</filter>
<path id="path0_fill" d="M 0 0L 2400 0L 2400 2400L 0 2400L 0 0Z"/>
<path id="path1_fill" d="M 15.0198 0.250193C 15.1393 -0.0833974 15.611 -0.083398 15.7305 0.250193L 17.4123 4.94589C 18.8135 8.85839 21.8928 11.9379 25.8049 13.3394L 30.5001 15.0213C 30.8337 15.1408 30.8337 15.6126 30.5001 15.7321L 25.8049 17.414C 21.8928 18.8155 18.8135 21.895 17.4123 25.8075L 15.7305 30.5032C 15.611 30.8368 15.1393 30.8368 15.0198 30.5032L 13.338 25.8075C 11.9367 21.895 8.8575 18.8155 4.94539 17.414L 0.250168 15.7321C -0.083389 15.6126 -0.0833894 15.1408 0.250167 15.0213L 4.94539 13.3394C 8.85749 11.9379 11.9367 8.8584 13.338 4.94589L 15.0198 0.250193Z"/>
<path id="path2_fill" d="M 19.7785 0.329463C 19.9359 -0.10982 20.5571 -0.109821 20.7144 0.329462L 22.929 6.51291C 24.7743 11.665 28.8291 15.7203 33.9807 17.5657L 40.1635 19.7805C 40.6027 19.9379 40.6027 20.5591 40.1635 20.7165L 33.9807 22.9313C 28.8291 24.7768 24.7743 28.832 22.929 33.9841L 20.7144 40.1676C 20.5571 40.6069 19.9359 40.6069 19.7785 40.1676L 17.5639 33.9841C 15.7187 28.832 11.6638 24.7768 6.51225 22.9313L 0.329429 20.7165C -0.109809 20.5591 -0.10981 19.9379 0.329428 19.7806L 6.51224 17.5657C 11.6638 15.7203 15.7186 11.665 17.5639 6.51291L 19.7785 0.329463Z"/>
<path id="path3_fill" d="M 7.58425 0.126335C 7.64458 -0.0421116 7.88278 -0.0421118 7.94311 0.126335L 8.79233 2.49743C 9.49991 4.47305 11.0548 6.02807 13.0302 6.73572L 15.401 7.58502C 15.5695 7.64536 15.5695 7.88358 15.401 7.94392L 13.0302 8.79322C 11.0548 9.50087 9.49991 11.0559 8.79233 13.0315L 7.94311 15.4026C 7.88278 15.5711 7.64458 15.5711 7.58425 15.4026L 6.73503 13.0315C 6.02745 11.0559 4.4726 9.50088 2.49718 8.79322L 0.126322 7.94392C -0.0421073 7.88358 -0.0421075 7.64536 0.126322 7.58502L 2.49718 6.73572C 4.4726 6.02807 6.02745 4.47305 6.73503 2.49743L 7.58425 0.126335Z"/>
<path id="path4_fill" d="M 19.7786 0.329463C 19.9359 -0.10982 20.5571 -0.109821 20.7144 0.329462L 22.9291 6.51291C 24.7743 11.665 28.8292 15.7202 33.9808 17.5657L 40.1636 19.7805C 40.6029 19.9379 40.6029 20.5591 40.1636 20.7165L 33.9808 22.9313C 28.8292 24.7768 24.7743 28.832 22.9291 33.9841L 20.7144 40.1676C 20.5571 40.6069 19.9359 40.6069 19.7786 40.1676L 17.564 33.9841C 15.7187 28.832 11.6639 24.7768 6.51227 22.9313L 0.32943 20.7165C -0.10981 20.5591 -0.10981 19.9379 0.329429 19.7805L 6.51226 17.5657C 11.6639 15.7202 15.7187 11.665 17.564 6.51291L 19.7786 0.329463Z"/>
<path id="path5_fill" d="M 15.0197 0.250193C 15.1392 -0.0833974 15.611 -0.0833979 15.7304 0.250193L 17.4122 4.94589C 18.8135 8.85839 21.8927 11.9379 25.8048 13.3394L 30.5 15.0213C 30.8336 15.1408 30.8336 15.6126 30.5 15.7321L 25.8048 17.414C 21.8927 18.8155 18.8135 21.895 17.4122 25.8075L 15.7304 30.5032C 15.611 30.8368 15.1392 30.8368 15.0198 30.5032L 13.338 25.8075C 11.9367 21.895 8.85747 18.8155 4.94538 17.414L 0.250167 15.7321C -0.0833887 15.6126 -0.0833892 15.1408 0.250167 15.0213L 4.94538 13.3394C 8.85747 11.9379 11.9367 8.8584 13.338 4.94589L 15.0197 0.250193Z"/>
<path id="path6_fill" d="M 15.0197 0.250193C 15.1392 -0.0833974 15.611 -0.083398 15.7304 0.250193L 17.4122 4.94589C 18.8135 8.85839 21.8927 11.9379 25.8048 13.3394L 30.5 15.0213C 30.8336 15.1408 30.8336 15.6126 30.5 15.7321L 25.8048 17.414C 21.8927 18.8155 18.8135 21.895 17.4122 25.8075L 15.7304 30.5032C 15.611 30.8368 15.1392 30.8368 15.0198 30.5032L 13.338 25.8075C 11.9367 21.895 8.85747 18.8155 4.94538 17.414L 0.250167 15.7321C -0.0833887 15.6126 -0.0833892 15.1408 0.250167 15.0213L 4.94538 13.3394C 8.85747 11.9379 11.9367 8.8584 13.338 4.94589L 15.0197 0.250193Z"/>
<path id="path7_fill" d="M 7.5843 0.126335C 7.64463 -0.0421115 7.88283 -0.0421118 7.94316 0.126335L 8.79239 2.49743C 9.49997 4.47305 11.0548 6.02806 13.0303 6.73571L 15.4011 7.58502C 15.5696 7.64536 15.5696 7.88358 15.4011 7.94391L 13.0303 8.79322C 11.0548 9.50087 9.49997 11.0559 8.79239 13.0315L 7.94316 15.4026C 7.88283 15.571 7.64463 15.571 7.5843 15.4026L 6.73508 13.0315C 6.02749 11.0559 4.47263 9.50087 2.49719 8.79322L 0.126323 7.94391C -0.0421076 7.88358 -0.0421078 7.64536 0.126323 7.58502L 2.49719 6.73571C 4.47263 6.02806 6.02749 4.47305 6.73508 2.49743L 7.5843 0.126335Z"/>
<path id="path8_fill" d="M 7.5843 0.126335C 7.64463 -0.0421116 7.88283 -0.0421118 7.94316 0.126335L 8.79239 2.49743C 9.49997 4.47305 11.0548 6.02807 13.0303 6.73572L 15.4011 7.58502C 15.5696 7.64536 15.5696 7.88358 15.4011 7.94392L 13.0303 8.79322C 11.0548 9.50088 9.49997 11.0559 8.79239 13.0315L 7.94316 15.4026C 7.88283 15.5711 7.64463 15.5711 7.5843 15.4026L 6.73508 13.0315C 6.02749 11.0559 4.47263 9.50088 2.49719 8.79323L 0.126323 7.94392C -0.0421076 7.88358 -0.0421078 7.64536 0.126323 7.58502L 2.49719 6.73572C 4.47263 6.02807 6.02749 4.47305 6.73508 2.49743L 7.5843 0.126335Z"/>
<path id="path9_fill" d="M 15.0197 0.250193C 15.1392 -0.0833972 15.611 -0.0833978 15.7304 0.250192L 17.4122 4.94588C 18.8135 8.85837 21.8927 11.9379 25.8048 13.3393L 30.5 15.0213C 30.8336 15.1408 30.8336 15.6125 30.5 15.732L 25.8048 17.414C 21.8927 18.8154 18.8135 21.8949 17.4122 25.8074L 15.7304 30.5031C 15.611 30.8367 15.1392 30.8367 15.0198 30.5031L 13.338 25.8074C 11.9367 21.8949 8.85747 18.8154 4.94538 17.414L 0.250167 15.732C -0.0833887 15.6125 -0.0833892 15.1408 0.250167 15.0213L 4.94538 13.3393C 8.85747 11.9379 11.9367 8.85838 13.338 4.94588L 15.0197 0.250193Z"/>
</defs>
</svg>
